<?xml version="1.0" standalone="no"?>
<!DOCTYPE svg PUBLIC "-//W3C//DTD SVG 1.1//EN" "http://www.w3.org/Graphics/SVG/1.1/DTD/svg11.dtd">
<svg xmlns="http://www.w3.org/2000/svg">
<metadata>Copyright (C) 2015 by original authors @ fontello.com</metadata>
<defs>
<font id="linea" horiz-adv-x="1000" >
<font-face font-family="linea" font-weight="400" font-stretch="normal" units-per-em="1000" ascent="850" descent="-150" />
<missing-glyph horiz-adv-x="1000" />
<glyph glyph-name="glyph" unicode="&#xe800;" d="m500 913c-275 0-500-225-500-500 0-106 31-206 94-291l68-69-131 0 0-31 172 0 16 16 0 171-31 0 0-138-71 70c-56 80-86 174-86 272 0 257 211 468 469 468 258 0 469-211 469-468 0-258-211-469-469-469l0-32c275 0 500 225 500 501 0 275-225 500-500 500z" horiz-adv-x="1000" />
<glyph glyph-name="glyph-5" unicode="&#xe801;" d="m500 913c-275 0-500-225-500-500 0-106 31-206 94-291l68-69-131 0 0-31 172 0 16 16 0 171-31 0 0-138-71 70c-56 80-86 174-86 272 0 257 211 468 469 468 10 0 20 0 29 0l4 30c-11 2-21 2-33 2z m330-123l-21-24c15-14 29-29 43-45l23 22c-14 15-29 31-45 47z m145-538l-32 10c-5-19-13-39-23-56l29-14c10 19 18 39 26 60z m-225-273c20 12 37 23 55 37l-20 25c-15-13-33-25-51-35z m-16 840c18-10 36-22 51-33l20 23c-18 14-37 25-55 37z m233-375c2-10 2-22 2-31 0-10 0-20 0-30l29-2c2 10 2 20 2 32 0 11 0 21-2 33z m-305-504c20 6 39 15 59 23l-14 30c-17-10-37-18-57-24z m-96-24c22 4 43 8 63 14l-8 29c-19-6-39-9-58-11z m-5 961c19-2 41-5 60-11l8 29c-22 6-43 10-64 14z m421-334l-29-9c6-20 10-39 12-59l31 4c-4 21-8 43-14 64z m-173-482l21-23c16 13 31 29 47 44l-23 22c-14-16-30-29-45-43z m187 287l-31 4c-2-20-6-41-12-61l29-7c6 21 10 43 14 64z m-125 350c14-16 26-33 35-51l28 16c-12 19-24 37-37 54z m49-78c10-18 18-38 23-57l30 12c-6 19-16 39-24 58z m-270 236c20-6 40-14 57-24l14 30c-20 10-39 17-61 25z m284-693l-28 15c-9-17-21-35-33-51l24-19c13 17 25 37 37 55z m-434-219l0-32c12 0 22 0 33 2l-4 30c-9 0-19 0-29 0z" horiz-adv-x="1000" />
<glyph glyph-name="glyph-4" unicode="&#xe802;" d="m500 913c-146 0-266-120-266-266l0-469c0-146 120-266 266-266 147 0 266 120 266 266l0 469c0 146-119 266-266 266z m234-735c0-129-105-234-234-234-129 0-234 105-234 234l0 469c0 129 105 234 234 234 129 0 234-105 234-234z m-234 203c-111 0-203-91-203-203 0-111 92-203 203-203 111 0 203 92 203 203 0 112-92 203-203 203z m0-375c-96 0-172 76-172 172 0 96 76 172 172 172 96 0 172-76 172-172 0-96-76-172-172-172z" horiz-adv-x="1000" />
<glyph glyph-name="glyph-1" unicode="&#xe803;" d="m734 678l-468 0c-147 0-266-119-266-265 0-147 119-266 266-266l468 0c147 0 266 119 266 266 0 146-119 265-266 265z m0-500l-468 0c-129 0-235 106-235 235 0 128 106 234 235 234l468 0c129 0 235-106 235-234 0-129-106-235-235-235z m-468 438c-112 0-203-92-203-203 0-112 91-204 203-204 111 0 203 92 203 204 0 111-92 203-203 203z m0-375c-96 0-172 76-172 172 0 95 76 171 172 171 95 0 172-76 172-171 0-96-77-172-172-172z" horiz-adv-x="1000" />
<glyph glyph-name="glyph-2" unicode="&#xe804;" d="m734 678l-468 0c-147 0-266-119-266-265 0-147 119-266 266-266l468 0c147 0 266 119 266 266 0 146-119 265-266 265z m0-500l-468 0c-129 0-235 106-235 235 0 128 106 234 235 234l468 0c129 0 235-106 235-234 0-129-106-235-235-235z m0 438c-111 0-203-92-203-203 0-112 92-204 203-204 112 0 204 92 204 204 0 111-92 203-204 203z m0-375c-95 0-171 76-171 172 0 95 76 171 171 171 96 0 172-76 172-171 0-96-76-172-172-172z" horiz-adv-x="1000" />
<glyph glyph-name="glyph-3" unicode="&#xe805;" d="m766 178l0 469c0 146-119 266-266 266-146 0-266-120-266-266l0-469c0-146 120-266 266-266 147 0 266 120 266 266z m-266-234c-129 0-234 105-234 234l0 469c0 129 105 234 234 234 129 0 234-105 234-234l0-469c0-129-105-234-234-234z m0 906c-111 0-203-92-203-203 0-111 92-203 203-203 111 0 203 92 203 203 0 111-92 203-203 203z m0-375c-96 0-172 76-172 172 0 96 76 172 172 172 96 0 172-76 172-172 0-96-76-172-172-172z" horiz-adv-x="1000" />
<glyph glyph-name="glyph-6" unicode="&#xe806;" d="m215 409l-24-26 188-189 23 0 375 377-23 23-363-363z" horiz-adv-x="1000" />
<glyph glyph-name="glyph-7" unicode="&#xe807;" d="m402 194l375 377-23 23-363-363-176 178-24-26 188-189z m98-282c0 0 0 0 0 0 133 0 260 53 354 147 93 94 146 221 146 354 0 132-53 259-146 353-94 94-221 147-354 147 0 0 0 0 0 0-133 0-260-53-353-147-94-94-147-221-147-353 0-133 53-260 147-354 93-94 220-147 353-147z m-332 833c90 87 207 136 332 136 0 0 0 0 0 0 125 0 242-49 332-136 88-90 137-207 137-332 0-125-49-243-137-332-90-88-207-137-332-137l0 0c0 0 0 0 0 0-125 0-242 49-332 137-88 89-137 207-137 332 0 125 49 242 137 332z" horiz-adv-x="1000" />
<glyph glyph-name="glyph-8" unicode="&#xe808;" d="m512 256l265 268-23 23-254-254-254 256-23-25 265-268z m-12-344c0 0 0 0 0 0 133 0 260 53 354 147 93 94 146 221 146 354 0 132-53 259-146 353-94 94-221 147-354 147 0 0 0 0 0 0-133 0-260-53-353-147-94-94-147-221-147-353 0-133 53-260 147-354 93-94 220-147 353-147z m-332 833c90 87 207 136 332 136 0 0 0 0 0 0 125 0 242-49 332-136 88-90 137-207 137-332 0-125-49-243-137-332-90-88-207-137-332-137l0 0c0 0 0 0 0 0-125 0-242 49-332 137-88 89-137 207-137 332 0 125 49 242 137 332z" horiz-adv-x="1000" />
<glyph glyph-name="glyph-9" unicode="&#xe809;" d="m500-88c0 0 0 0 0 0 133 0 260 53 354 147 93 94 146 221 146 354 0 132-53 259-146 353-94 94-221 147-354 147 0 0 0 0 0 0-133 0-260-53-353-147-94-94-147-221-147-353 0-133 53-260 147-354 93-94 220-147 353-147z m-332 833c90 87 207 136 332 136 0 0 0 0 0 0 125 0 242-49 332-136 88-90 137-207 137-332 0-125-49-243-137-332-90-88-207-137-332-137l0 0c0 0 0 0 0 0-125 0-242 49-332 137-88 89-137 207-137 332 0 125 49 242 137 332z m566-489l0 32-359 0 0 359-31 0 0-375 15-16z" horiz-adv-x="1000" />
<glyph glyph-name="glyph-10" unicode="&#xe80a;" d="m500-88c0 0 0 0 0 0 133 0 260 53 354 147 93 94 146 221 146 354 0 132-53 259-146 353-94 94-221 147-354 147 0 0 0 0 0 0-133 0-260-53-353-147-94-94-147-221-147-353 0-133 53-260 147-354 93-94 220-147 353-147z m-332 833c90 87 207 136 332 136 0 0 0 0 0 0 125 0 242-49 332-136 88-90 137-207 137-332 0-125-49-243-137-332-90-88-207-137-332-137l0 0c0 0 0 0 0 0-125 0-242 49-332 137-88 89-137 207-137 332 0 125 49 242 137 332z m488-473l0 375-31 0 0-359-359 0 0-32 375 0z" horiz-adv-x="1000" />
<glyph glyph-name="glyph-11" unicode="&#xe80b;" d="m436 135l267 266 0 23-267 266-24-24 254-253-254-254z m64-223c0 0 0 0 0 0 133 0 260 53 354 147 93 94 146 221 146 354 0 132-53 259-146 353-94 94-221 147-354 147 0 0 0 0 0 0-133 0-260-53-353-147-94-94-147-221-147-353 0-133 53-260 147-354 93-94 220-147 353-147z m-332 833c90 87 207 136 332 136 0 0 0 0 0 0 125 0 242-49 332-136 88-90 137-207 137-332 0-125-49-243-137-332-90-88-207-137-332-137l0 0c0 0 0 0 0 0-125 0-242 49-332 137-88 89-137 207-137 332 0 125 49 242 137 332z" horiz-adv-x="1000" />
<glyph glyph-name="glyph-12" unicode="&#xe80c;" d="m219 444l562 0 0-31-562 0z m281-532c0 0 0 0 0 0 133 0 260 53 354 147 93 94 146 221 146 354 0 132-53 259-146 353-94 94-221 147-354 147 0 0 0 0 0 0-133 0-260-53-353-147-94-94-147-221-147-353 0-133 53-260 147-354 93-94 220-147 353-147z m-332 833c90 87 207 136 332 136 0 0 0 0 0 0 125 0 242-49 332-136 88-90 137-207 137-332 0-125-49-243-137-332-90-88-207-137-332-137l0 0c0 0 0 0 0 0-125 0-242 49-332 137-88 89-137 207-137 332 0 125 49 242 137 332z" horiz-adv-x="1000" />
<glyph glyph-name="glyph-13" unicode="&#xe80d;" d="m484 131l32 0 0 266 265 0 0 31-265 0 0 266-32 0 0-266-265 0 0-31 265 0z m16-219c0 0 0 0 0 0 133 0 260 53 354 147 93 94 146 221 146 354 0 132-53 259-146 353-94 94-221 147-354 147 0 0 0 0 0 0-133 0-260-53-353-147-94-94-147-221-147-353 0-133 53-260 147-354 93-94 220-147 353-147z m-332 833c90 87 207 136 332 136 0 0 0 0 0 0 125 0 242-49 332-136 88-90 137-207 137-332 0-125-49-243-137-332-90-88-207-137-332-137l0 0c0 0 0 0 0 0-125 0-242 49-332 137-88 89-137 207-137 332 0 125 49 242 137 332z" horiz-adv-x="1000" />
<glyph glyph-name="glyph-14" unicode="&#xe80e;" d="m287 248l22-21 191 193 193-191 22 21-193 192 191 193-22 22-191-194-193 192-22-22 194-191z m213-336c0 0 0 0 0 0 133 0 260 53 354 147 93 94 146 221 146 354 0 132-53 259-146 353-94 94-221 147-354 147 0 0 0 0 0 0-133 0-260-53-353-147-94-94-147-221-147-353 0-133 53-260 147-354 93-94 220-147 353-147z m-332 833c90 87 207 136 332 136 0 0 0 0 0 0 125 0 242-49 332-136 88-90 137-207 137-332 0-125-49-243-137-332-90-88-207-137-332-137l0 0c0 0 0 0 0 0-125 0-242 49-332 137-88 89-137 207-137 332 0 125 49 242 137 332z" horiz-adv-x="1000" />
<glyph glyph-name="glyph-15" unicode="&#xe80f;" d="m590 159l-256 254 256 253-25 24-268-266 0-23 268-266z m-90-247c0 0 0 0 0 0 133 0 260 53 354 147 93 94 146 221 146 354 0 132-53 259-146 353-94 94-221 147-354 147 0 0 0 0 0 0-133 0-260-53-353-147-94-94-147-221-147-353 0-133 53-260 147-354 93-94 220-147 353-147z m-332 833c90 87 207 136 332 136 0 0 0 0 0 0 125 0 242-49 332-136 88-90 137-207 137-332 0-125-49-243-137-332-90-88-207-137-332-137l0 0c0 0 0 0 0 0-125 0-242 49-332 137-88 89-137 207-137 332 0 125 49 242 137 332z" horiz-adv-x="1000" />
<glyph glyph-name="glyph-16" unicode="&#xe810;" d="m500 532l254-256 23 25-265 268-24 0-265-268 23-23z m0-620c0 0 0 0 0 0 133 0 260 53 354 147 93 94 146 221 146 354 0 132-53 259-146 353-94 94-221 147-354 147 0 0 0 0 0 0-133 0-260-53-353-147-94-94-147-221-147-353 0-133 53-260 147-354 93-94 220-147 353-147z m-332 833c90 87 207 136 332 136 0 0 0 0 0 0 125 0 242-49 332-136 88-90 137-207 137-332 0-125-49-243-137-332-90-88-207-137-332-137l0 0c0 0 0 0 0 0-125 0-242 49-332 137-88 89-137 207-137 332 0 125 49 242 137 332z" horiz-adv-x="1000" />
<glyph glyph-name="glyph-17" unicode="&#xe811;" d="m500-88c0 0 0 0 0 0 133 0 260 53 354 147 93 94 146 221 146 354 0 132-53 259-146 353-94 94-221 147-354 147 0 0 0 0 0 0-133 0-260-53-353-147-94-94-147-221-147-353 0-133 53-260 147-354 93-94 220-147 353-147z m-332 833c90 87 207 136 332 136 0 0 0 0 0 0 125 0 242-49 332-136 88-90 137-207 137-332 0-125-49-243-137-332-90-88-207-137-332-137l0 0c0 0 0 0 0 0-125 0-242 49-332 137-88 89-137 207-137 332 0 125 49 242 137 332z m207-207l359 0 0 31-390 0 0-391 31 0z" horiz-adv-x="1000" />
<glyph glyph-name="glyph-18" unicode="&#xe812;" d="m500-88c0 0 0 0 0 0 133 0 260 53 354 147 93 94 146 221 146 354 0 132-53 259-146 353-94 94-221 147-354 147 0 0 0 0 0 0-133 0-260-53-353-147-94-94-147-221-147-353 0-133 53-260 147-354 93-94 220-147 353-147z m-332 833c90 87 207 136 332 136 0 0 0 0 0 0 125 0 242-49 332-136 88-90 137-207 137-332 0-125-49-243-137-332-90-88-207-137-332-137l0 0c0 0 0 0 0 0-125 0-242 49-332 137-88 89-137 207-137 332 0 125 49 242 137 332z m457-567l31 0 0 375-15 16-375 0 0-31 359 0z" horiz-adv-x="1000" />
<glyph glyph-name="glyph-19" unicode="&#xe813;" d="m500 913c-275 0-500-225-500-500 0-276 225-501 500-501l0 32c-258 0-469 211-469 469 0 257 211 468 469 468 258 0 469-211 469-468 0-98-29-192-86-272l-70-70 0 138-32 0 0-171 16-16 172 0 0 31-131 0 68 67 0 2c63 85 94 185 94 291 0 275-225 500-500 500z" horiz-adv-x="1000" />
<glyph glyph-name="glyph-20" unicode="&#xe814;" d="m127 127c-12 16-23 34-33 51l-28-15c12-18 24-38 38-55z m-61 536l28-16c10 18 21 35 35 51l-25 19c-14-17-26-35-38-54z m-66-250c0-12 0-22 2-32l29 2c0 10 0 20 0 30 0 9 0 21 2 31l-31 2c-2-12-2-22-2-33z m4-65c4-21 8-43 14-64l29 7c-6 20-10 41-12 61z m0 131l31-4c2 20 6 39 12 59l-29 9c-6-21-10-43-14-64z m23 96l30-12c6 19 13 39 23 57l-29 13c-8-19-18-39-24-58z m53-369c-10 17-17 37-23 56l-32-10c8-21 16-41 26-60z m270 650l-10 31c-22-8-41-15-61-25l14-30c18 10 37 18 57 24z m-100-877l16 27c-18 10-35 22-51 35l-20-25c18-14 36-25 55-37z m184-63l4 32c-20 2-40 5-59 11l-10-29c22-6 43-10 65-14z m-96 24l12 29c-20 6-39 14-57 24l-14-30c20-8 39-17 59-23z m-72 879l-16 27c-18-12-37-23-55-37l20-23c16 11 33 23 51 33z m174 58l-4 32c-22-4-43-8-65-14l8-29c19 6 41 9 61 11z m-270-87c-16-16-31-32-45-47l23-22c14 16 28 31 43 45z m0-752l21 23c-15 14-31 27-44 43l-24-22c16-15 31-31 47-44z m330-94c-10 0-19 0-29 0l-4-30c12-2 21-2 33-2z m0 969c-12 0-21 0-33-2l4-30c10 0 19 0 29 0 258 0 469-211 469-468 0-98-29-192-86-272l-70-70 0 138-32 0 0-171 16-16 172 0 0 31-131 0 68 67 0 2c63 85 94 185 94 291 0 275-225 500-500 500z" horiz-adv-x="1000" />
<glyph glyph-name="glyph-21" unicode="&#xe815;" d="m746 510l-25 24-112-110 0-23 112-110 23 24-82 82 338 0 0 31-338 0z m-492-195l25-24 112 110 0 23-112 110-23-24 82-82-338 0 0-31 338 0z m234-12l-109-111 23-24 82 82 0-338 32 0 0 338 82-84 23 26-109 111z m-4 610l0-338-82 84-23-26 109-111 24 0 109 111-23 24-82-82 0 338z" horiz-adv-x="1000" />
<glyph glyph-name="glyph-22" unicode="&#xe816;" d="m500 913c-133 0-260-53-353-147-94-94-147-221-147-353 0-133 53-260 147-354 93-94 220-147 353-147 133 0 260 53 354 147 93 94 146 221 146 354 0 132-53 259-146 353-94 94-221 147-354 147z m-332-832c-88 89-137 207-137 332 0 119 45 232 127 320l662-662c-88-82-201-127-320-127-125 0-242 49-332 137z m674 11l-662 662c88 82 201 127 320 127 125 0 242-49 332-136 88-90 137-207 137-332 0-120-45-233-127-321z" horiz-adv-x="1000" />
<glyph glyph-name="glyph-23" unicode="&#xe817;" d="m813 913l0-32 134 0-916-916 0 135-31 0 0-172 16-16 172 0 0 32-135 0 916 916 0-135 31 0 0 172-16 16z" horiz-adv-x="1000" />
<glyph glyph-name="glyph-24" unicode="&#xe818;" d="m969-35l-916 916 135 0 0 32-172 0-16-16 0-172 31 0 0 135 916-916-134 0 0-32 171 0 16 16 0 172-31 0z" horiz-adv-x="1000" />
<glyph glyph-name="glyph-25" unicode="&#xe819;" d="m754 549l-254-256-254 256-23-25 265-268 24 0 265 268z" horiz-adv-x="1000" />
<glyph glyph-name="glyph-26" unicode="&#xe81a;" d="m498 184l-254 256-21-25 265-268 22 0 265 268-21 23z m0 234l-254 256-21-25 265-268 22 0 265 268-21 23z" horiz-adv-x="1000" />
<glyph glyph-name="glyph-27" unicode="&#xe81b;" d="m344 647l0-375 15-16 375 0 0 32-359 0 0 359z" horiz-adv-x="1000" />
<glyph glyph-name="glyph-28" unicode="&#xe81c;" d="m266 288l0-32 375 0 15 16 0 375-31 0 0-359z" horiz-adv-x="1000" />
<glyph glyph-name="glyph-29" unicode="&#xe81d;" d="m500 913c-139 0-250-112-250-250 0-133 104-241 234-250l0-448-113 116-23-26 140-143 24 0 140 143-23 24-113-114 0 448c131 9 234 117 234 250 0 138-111 250-250 250z m0-469c-121 0-219 97-219 219 0 121 98 218 219 218 121 0 219-97 219-218 0-122-98-219-219-219z" horiz-adv-x="1000" />
<glyph glyph-name="glyph-30" unicode="&#xe81e;" d="m484 53l32 0 0-62-32 0z m0 94l32 0 0-63-32 0z m0 187l32 0 0-62-32 0z m0-93l32 0 0-63-32 0z m266 422c0 138-111 250-250 250-139 0-250-112-250-250 0-133 104-241 234-250l0-47 32 0 0 47c131 9 234 117 234 250z m-250-219c-121 0-219 97-219 219 0 121 98 218 219 218 121 0 219-97 219-218 0-122-98-219-219-219z m-129-363l-23-26 140-143 24 0 140 143-23 24-119-120-20 0z" horiz-adv-x="1000" />
<glyph glyph-name="glyph-31" unicode="&#xe81f;" d="m359 913l32 0 0-1001-32 0z m125 0l32 0 0-1001-32 0z m125 0l32 0 0-1001-32 0z" horiz-adv-x="1000" />
<glyph glyph-name="glyph-32" unicode="&#xe820;" d="m750 663c-133 0-240-104-250-235l-447 0 115 113-25 24-143-141 0-23 143-141 23 24-113 113 447 0c10-131 117-234 250-234 139 0 250 111 250 250 0 138-111 250-250 250z m0-469c-121 0-219 97-219 219 0 121 98 218 219 218 121 0 219-97 219-218 0-122-98-219-219-219z" horiz-adv-x="1000" />
<glyph glyph-name="glyph-33" unicode="&#xe821;" d="m78 428l63 0 0-31-63 0z m281 0l63 0 0-31-63 0z m-93 0l62 0 0-31-62 0z m-94 0l62 0 0-31-62 0z m578 235c-133 0-240-104-250-235l-47 0 0-31 47 0c10-131 117-234 250-234 139 0 250 111 250 250 0 138-111 250-250 250z m0-469c-121 0-219 97-219 219 0 121 98 218 219 218 121 0 219-97 219-218 0-122-98-219-219-219z m-607 371l-143-141 0-23 143-141 23 24-119 119 0 19 119 119z" horiz-adv-x="1000" />
<glyph glyph-name="glyph-34" unicode="&#xe822;" d="m832 541l115-113-447 0c-10 131-117 235-250 235-139 0-250-112-250-250 0-139 111-250 250-250 133 0 240 103 250 234l447 0-115-113 25-24 143 141 0 23-143 141z m-582-347c-121 0-219 97-219 219 0 121 98 218 219 218 121 0 219-97 219-218 0-122-98-219-219-219z" horiz-adv-x="1000" />
<glyph glyph-name="glyph-35" unicode="&#xe823;" d="m578 428l63 0 0-31-63 0z m94 0l62 0 0-31-62 0z m187 0l63 0 0-31-63 0z m-93 0l62 0 0-31-62 0z m-266-31l47 0 0 31-47 0c-10 131-117 235-250 235-139 0-250-112-250-250 0-139 111-250 250-250 133 0 240 103 250 234z m-250-203c-121 0-219 97-219 219 0 121 98 218 219 218 121 0 219-97 219-218 0-122-98-219-219-219z m582 347l121-119 0-19-121-119 25-24 143 141 0 23-143 141z" horiz-adv-x="1000" />
<glyph glyph-name="glyph-36" unicode="&#xe824;" d="m516 413l0 447 113-115 23 25-140 143-24 0-140-143 23-23 113 113 0-447c-130-10-234-118-234-250 0-139 111-251 250-251 139 0 250 112 250 251 0 132-103 240-234 250z m-16-469c-121 0-219 97-219 219 0 121 98 218 219 218 121 0 219-97 219-218 0-122-98-219-219-219z" horiz-adv-x="1000" />
<glyph glyph-name="glyph-37" unicode="&#xe825;" d="m484 647l32 0 0-63-32 0z m0 187l32 0 0-62-32 0z m0-93l32 0 0-63-32 0z m0-188l32 0 0-62-32 0z m-234-390c0-139 111-251 250-251 139 0 250 112 250 251 0 132-103 240-234 250l0 46-32 0 0-46c-130-10-234-118-234-250z m250 218c121 0 219-97 219-218 0-122-98-219-219-219-121 0-219 97-219 219 0 121 98 218 219 218z m129 364l23 25-140 143-24 0-140-143 23-23 119 119 20 0z" horiz-adv-x="1000" />
<glyph glyph-name="glyph-38" unicode="&#xe826;" d="m0 303l1000 0 0-31-1000 0z m0 125l1000 0 0-31-1000 0z m0 125l1000 0 0-31-1000 0z" horiz-adv-x="1000" />
<glyph glyph-name="glyph-39" unicode="&#xe827;" d="m500 913c-133 0-260-53-353-147-94-94-147-221-147-353 0-133 53-260 147-354 93-94 220-147 353-147 133 0 260 53 354 147 93 94 146 221 146 354 0 132-53 259-146 353-94 94-221 147-354 147z m332-832c-90-88-207-137-332-137-125 0-242 49-332 137-88 89-137 207-137 332 0 125 49 242 137 332 90 87 207 136 332 136 125 0 242-49 332-136 88-90 137-207 137-332 0-125-49-243-137-332z m-348 566l32 0 0-344-32 0z m0-406l32 0 0-63-32 0z" horiz-adv-x="1000" />
<glyph glyph-name="glyph-40" unicode="&#xe828;" d="m31 860l301-303 24 24-303 300 135 0 0 32-172 0-16-16 0-172 31 0z m157-948l0 32-135 0 303 301-24 23-301-303 0 135-31 0 0-172 16-16z m781 53l-301 303-23-23 302-301-134 0 0-32 171 0 16 16 0 172-31 0z m-156 948l0-32 134 0-302-300 23-24 301 303 0-135 31 0 0 172-16 16z" horiz-adv-x="1000" />
<glyph glyph-name="glyph-41" unicode="&#xe829;" d="m813 913l0-32 134 0-353-353-379 381-24-24 782-781 23 23-381 379 354 354 0-135 31 0 0 172-16 16z m-625-1001l0 32-135 0 353 353 383-383 22 22-784 785-23-23 381-379-354-354 0 135-31 0 0-172 16-16z" horiz-adv-x="1000" />
<glyph glyph-name="glyph-42" unicode="&#xe82a;" d="m656 913l0-1001 32 0 0 485 259 0-84-82 26-24 111 110 0 23-111 110-24-24 82-82-259 0 0 485z m-545-379l-111-110 0-23 111-110 24 24-82 82 260 0 0-485 31 0 0 1001-31 0 0-485-260 0 82 82z" horiz-adv-x="1000" />
<glyph glyph-name="glyph-43" unicode="&#xe82b;" d="m0 225l484 0 0-260-82 84-23-25 109-112 24 0 109 112-23 23-82-82 0 260 484 0 0 31-1000 0z m516 635l82-84 23 25-109 112-24 0-109-112 23-23 82 82 0-260-484 0 0-31 1000 0 0 31-484 0z" horiz-adv-x="1000" />
<glyph glyph-name="glyph-44" unicode="&#xe82c;" d="m262 315l-84 82 644 0-84-82 26-24 111 110 0 23-111 110-24-24 82-82-644 0 84 82-26 24-111-110 0-23 111-110z m707 598l31 0 0-1001-31 0z m-969 0l31 0 0-1001-31 0z" horiz-adv-x="1000" />
<glyph glyph-name="glyph-45" unicode="&#xe82d;" d="m402 174l-23-25 109-111 24 0 109 111-23 23-82-82 0 645 82-84 23 25-109 112-24 0-109-112 23-23 82 82 0-645z m-402 739l1000 0 0-32-1000 0z m0-969l1000 0 0-32-1000 0z" horiz-adv-x="1000" />
<glyph glyph-name="glyph-46" unicode="&#xe82e;" d="m500-48l-207 207-23-26 218-221 22 0 219 221-22 24z m-10 961l-220-221 23-24 207 207 209-207 22 24-219 221z m104-500c0 52-43 93-94 93-53 0-94-41-94-93 0-51 41-94 94-94 51 0 94 43 94 94z m-156 0c0 35 27 62 62 62 33 0 63-27 63-62 0-34-30-63-63-63-35 0-62 29-62 63z m316 207l209-207-209-207 25-24 221 219 0 23-221 219z m-510 2l-23 21-221-219 0-21 221-219 23 22-207 209z" horiz-adv-x="1000" />
<glyph glyph-name="glyph-47" unicode="&#xe82f;" d="m707 666l256-253-256-254 25-24 268 266 0 23-268 266z m-439 24l-268-266 0-21 268-266 23 22-254 256 254 253z m232-184c-51 0-94-43-94-93 0-51 43-94 94-94 51 0 94 43 94 94 0 50-43 93-94 93z m0-156c-35 0-62 27-62 63 0 35 27 62 62 62 35 0 63-27 63-62 0-36-28-63-63-63z" horiz-adv-x="1000" />
<glyph glyph-name="glyph-48" unicode="&#xe830;" d="m500-48l-256 254-21-26 265-268 22 0 265 268-21 24z m-10 961l-265-268 21-23 254 253 256-253 21 23-265 268z m104-500c0 52-43 93-94 93-53 0-94-41-94-93 0-51 41-94 94-94 51 0 94 43 94 94z m-156 0c0 35 27 62 62 62 33 0 63-27 63-62 0-34-30-63-63-63-35 0-62 29-62 63z" horiz-adv-x="1000" />
<glyph glyph-name="glyph-49" unicode="&#xe831;" d="m0 600l94 0 0-31-94 0z m250 0l750 0 0-31-750 0z m-250-187l94 0 0-32-94 0z m250 0l750 0 0-32-750 0z m-250-188l94 0 0-31-94 0z m250 0l750 0 0-31-750 0z" horiz-adv-x="1000" />
<glyph glyph-name="glyph-50" unicode="&#xe832;" d="m188 600l625 0 0-31-625 0z m0-187l625 0 0-32-625 0z m0-188l625 0 0-31-625 0z" horiz-adv-x="1000" />
<glyph glyph-name="glyph-51" unicode="&#xe833;" d="m111 534l-111-110 0-23 111-110 24 24-82 82 894 0-84-82 26-24 111 110 0 23-111 110-24-24 82-82-894 0 82 82z" horiz-adv-x="1000" />
<glyph glyph-name="glyph-52" unicode="&#xe834;" d="m500 913c-133 0-260-53-353-147-94-94-147-221-147-353 0-133 53-260 147-354 93-94 220-147 353-147 133 0 260 53 354 147 93 94 146 221 146 354 0 132-53 259-146 353-94 94-221 147-354 147z m332-832c-90-88-207-137-332-137-125 0-242 49-332 137-88 89-137 207-137 332 0 125 49 242 137 332 90 87 207 136 332 136 125 0 242-49 332-136 88-90 137-207 137-332 0-125-49-243-137-332z m-348 441l32 0 0-344-32 0z m0 125l32 0 0-63-32 0z" horiz-adv-x="1000" />
<glyph glyph-name="glyph-53" unicode="&#xe835;" d="m16 913l-16-16 0-969 16-16 968 0 16 16 0 969-16 16z m953-969l-938 0 0 937 938 0z m-514 304l14-7 437 0 0 31-429 0-182 273-14 8-187 0 0-31 179 0z m14 305l437 0 0-31-437 0z" horiz-adv-x="1000" />
<glyph glyph-name="glyph-54" unicode="&#xe836;" d="m16 913l-16-16 0-969 16-16 968 0 16 16 0 969-16 16z m953-969l-938 0 0 937 938 0z m-625 406c-51 0-94-43-94-94 0-50 43-93 94-93 51 0 94 43 94 93l0 63 125 0 0-63c0-50 43-93 93-93 51 0 94 43 94 93 0 51-43 94-94 94l-62 0 0 125 62 0c51 0 94 43 94 94 0 51-43 94-94 94-50 0-93-43-93-94l0-63-125 0 0 63c0 51-43 94-94 94-51 0-94-43-94-94 0-51 43-94 94-94l62 0 0-125z m62-94c0-35-27-62-62-62-35 0-63 27-63 62 0 35 28 63 63 63l62 0z m188 313c0 35 27 62 62 62 35 0 63-27 63-62 0-35-28-63-63-63l-62 0z m0-250l62 0c35 0 63-28 63-63 0-35-28-62-63-62-35 0-62 27-62 62z m-156 156l125 0 0-125-125 0z m-94 31c-35 0-63 28-63 63 0 35 28 62 63 62 35 0 62-27 62-62l0-63z" horiz-adv-x="1000" />
<glyph glyph-name="glyph-55" unicode="&#xe837;" d="m16 913l-16-16 0-969 16-16 968 0 16 16 0 969-16 16z m953-969l-938 0 0 937 938 0z m-94 265l0 407-586 0-168-203 168-204z m-570 375l539 0 0-343-539 0-145 172z m129-293l97 100 98-100 23 24-99 98 99 97-23 24-98-100-97 100-24-24 100-97-100-98z" horiz-adv-x="1000" />
<glyph glyph-name="glyph-56" unicode="&#xe838;" d="m16 913l-16-16 0-969 16-16 968 0 16 16 0 969-16 16z m953-969l-938 0 0 937 938 0z m-455 297l172 254-14 27-344 0-13-27 171-254z m129 250l-143-207-143 207z" horiz-adv-x="1000" />
<glyph glyph-name="glyph-57" unicode="&#xe839;" d="m16 913l-16-16 0-969 16-16 968 0 16 16 0 969-16 16z m953-969l-938 0 0 937 938 0z m-360 297l0 343-27 14-254-172 0-27 254-172z m-31 29l-207 143 207 142z" horiz-adv-x="1000" />
<glyph glyph-name="glyph-58" unicode="&#xe83a;" d="m16 913l-16-16 0-969 16-16 968 0 16 16 0 969-16 16z m953-969l-938 0 0 937 938 0z m-676 262l-115 113 697 0 0 328-187 0 0-31 156 0 0-266-666 0 115 113-25 24-143-141 0-23 143-141z" horiz-adv-x="1000" />
<glyph glyph-name="glyph-59" unicode="&#xe83b;" d="m16 913l-16-16 0-969 16-16 968 0 16 16 0 969-16 16z m953-969l-938 0 0 937 938 0z m-297 455l0 27-254 172-27-14 0-343 27-14z m-250 156l207-142-207-143z" horiz-adv-x="1000" />
<glyph glyph-name="glyph-60" unicode="&#xe83c;" d="m16 913l-16-16 0-969 16-16 968 0 16 16 0 969-16 16z m953-969l-938 0 0 937 938 0z m-594 390l0-140 16-16 218 0 16 16 0 140 109 0 12 30-234 283-24 0-234-283 12-30z m125 274l201-242-92 0-15-16 0-141-188 0 0 141-15 16-92 0z" horiz-adv-x="1000" />
<glyph glyph-name="glyph-61" unicode="&#xe83d;" d="m16 913l-16-16 0-969 16-16 968 0 16 16 0 969-16 16z m953-969l-938 0 0 937 938 0z m-371 371l25-24 111 110 0 23-111 110-23-24 82-82-494 0 0-31 494 0z m168 238l31 0 0-281-31 0z" horiz-adv-x="1000" />
<glyph glyph-name="glyph-62" unicode="&#xe83e;" d="m16 913l-16-16 0-969 16-16 968 0 16 16 0 969-16 16z m953-969l-938 0 0 937 938 0z m-297 328l14 27-172 254-28 0-171-254 13-27z m-172 238l143-207-286 0z" horiz-adv-x="1000" />
<glyph glyph-name="glyph-63" unicode="&#xe83f;" d="m565 690l-268-266 0-23 268-266 23 24-254 254 254 253z" horiz-adv-x="1000" />
<glyph glyph-name="glyph-64" unicode="&#xe840;" d="m525 668l-23 22-268-266 0-21 268-266 23 22-253 256z m211 22l-267-266 0-21 267-266 24 22-254 256 254 253z" horiz-adv-x="1000" />
<glyph glyph-name="glyph-65" unicode="&#xe841;" d="m219 444l562 0 0-31-562 0z" horiz-adv-x="1000" />
<glyph glyph-name="glyph-66" unicode="&#xe842;" d="m137 510l-26 24-111-110 0-23 111-110 24 24-82 82 369 0 0 31-369 0z m441-113l369 0-84-82 26-24 111 110 0 23-111 110-24-24 82-82-369 0z m-90 516l-109-112 23-23 82 82 0-369 32 0 0 369 82-84 23 25-109 112z m-4-579l0-369-82 84-23-25 109-112 24 0 109 112-23 23-82-82 0 369z" horiz-adv-x="1000" />
<glyph glyph-name="glyph-67" unicode="&#xe843;" d="m0 401l111-110 24 24-82 82 431 0 0-432-82 84-23-25 109-112 24 0 109 112-23 23-82-82 0 432 431 0-84-82 26-24 111 110 0 23-111 110-24-24 82-82-431 0 0 432 82-84 23 25-109 112-24 0-109-112 23-23 82 82 0-432-431 0 84 82-26 24-111-110z" horiz-adv-x="1000" />
<glyph glyph-name="glyph-68" unicode="&#xe844;" d="m512 100l109 111-23 24-82-82 0 681-32 0 0-681-82 84-23-26 109-111z m-512-94l1000 0 0-31-1000 0z" horiz-adv-x="1000" />
<glyph glyph-name="glyph-69" unicode="&#xe845;" d="m324 315l-84 82 682 0 0 31-682 0 84 82-25 24-111-110 0-23 111-110z m-261 598l31 0 0-1001-31 0z" horiz-adv-x="1000" />
<glyph glyph-name="glyph-70" unicode="&#xe846;" d="m676 315l25-24 112 110 0 23-112 110-23-24 82-82-682 0 0-31 682 0z m230 598l32 0 0-1001-32 0z" horiz-adv-x="1000" />
<glyph glyph-name="glyph-71" unicode="&#xe847;" d="m516-9l0 681 82-84 23 26-109 111-24 0-109-111 23-24 82 82 0-681z m-516 859l1000 0 0-31-1000 0z" horiz-adv-x="1000" />
<glyph glyph-name="glyph-72" unicode="&#xe848;" d="m484 694l0-266-265 0 0-31 265 0 0-266 32 0 0 266 265 0 0 31-265 0 0 266z" horiz-adv-x="1000" />
<glyph glyph-name="glyph-73" unicode="&#xe849;" d="m500 913c-133 0-260-53-353-147-94-94-147-221-147-353 0-133 53-260 147-354 93-94 220-147 353-147 133 0 260 53 354 147 93 94 146 221 146 354 0 132-53 259-146 353-94 94-221 147-354 147z m332-832c-90-88-207-137-332-137-125 0-242 49-332 137-88 89-137 207-137 332 0 125 49 242 137 332 90 87 207 136 332 136 125 0 242-49 332-136 88-90 137-207 137-332 0-125-49-243-137-332z m-379 160l31 0 0-63-31 0z m47 437c-94 0-141-31-141-94l32 0c0 30 11 63 109 63 66 0 109-37 109-94 0-43-60-84-86-96-1-1-70-37-70-138l0-16 31 0 0 16c0 82 51 109 55 111 4 2 102 51 102 123 0 74-59 125-141 125z" horiz-adv-x="1000" />
<glyph glyph-name="glyph-74" unicode="&#xe84a;" d="m691 657l-191-194-193 192-22-22 194-191-192-194 22-21 191 193 193-191 22 21-193 192 191 193z" horiz-adv-x="1000" />
<glyph glyph-name="glyph-75" unicode="&#xe84b;" d="m703 424l-267 266-24-24 254-253-256-254 26-24 267 266z" horiz-adv-x="1000" />
<glyph glyph-name="glyph-76" unicode="&#xe84c;" d="m473 666l256-253-256-254 25-24 268 266 0 23-268 266z m58-242l-267 266-24-24 254-253-256-254 26-24 267 266z" horiz-adv-x="1000" />
<glyph glyph-name="glyph-77" unicode="&#xe84d;" d="m516 881c121 0 234-47 320-133 158-158 178-412 43-591l-66-67 0 135-32 0 0-172 16-15 172 0 0 31-135 0 68 66 0 2c145 192 125 465-45 633-89 92-212 143-341 143z m-395-213l67 67 0-135 31 0 0 172-16 16-172 0 0-32 135 0-68-66 0-2c-145-191-125-465 45-633 89-92 213-143 341-143l0 32c-121 0-234 47-320 133-158 158-178 412-43 591z" horiz-adv-x="1000" />
<glyph glyph-name="glyph-78" unicode="&#xe84e;" d="m98 137l68-68-135 0 0-31 172 0 16 15 0 172-31 0 0-135-67 67c-135 179-115 433 43 591 86 86 199 133 320 133l0 32c-128 0-252-51-341-143-170-168-190-441-45-633z m736 619l135 0 0 32-172 0-16-16 0-172 32 0 0 135 66-67c135-179 115-433-43-591-86-86-199-133-320-133l0-32c129 0 252 51 341 143 170 168 190 442 45 633z" horiz-adv-x="1000" />
<glyph glyph-name="glyph-79" unicode="&#xe84f;" d="m484 913c-9 0-21 0-33-2l4-32c10 2 20 2 29 2z m-478-563l31 4c-4 21-6 43-6 62l-31 0c0-23 2-44 6-66z m-6 100l31-2c2 21 4 43 8 62l-31 6c-4-21-6-43-8-66z m16 99l29-8c6 22 12 41 21 61l-29 12c-10-22-15-43-21-65z m107-392l45-47-21-22-47 45z m295 752c-21-4-43-8-64-14l7-31c20 6 41 9 63 13z m-98-26c-21-6-41-15-60-25l13-29c20 9 40 19 59 25z m-273-662c10-19 19-41 33-58l26 17c-12 18-22 35-32 55z m4 424l27-16c10 20 22 37 33 55l-27 18c-12-18-23-37-33-57z m-37-328c4-22 11-45 19-65l30 12c-8 20-14 39-20 59z m232 496l-15 27c-20-11-38-25-55-39l19-23c16 12 34 25 51 35z m-103-43c-14-12-26-27-37-41l23-20c12 14 23 28 35 39 2 2 6 6 8 8l-22 24c-3-4-5-6-7-10z m373-826l0-32c9 0 21 0 33 2l-4 32c-10-2-20-2-29-2z m451 629l-29-12c7-20 13-39 19-59l29 6c-4 22-11 45-19 65z m17-297l-29 8c-6-22-12-41-21-61l29-12c10 22 16 43 21 65z m-21 195c4-21 6-43 6-62l31 0c0 23-2 45-6 66z m-2-156l31-6c4 22 6 43 8 66l-31 2c-2-21-4-43-8-62z m-191-330c19 11 37 25 54 39l-19 23c-16-11-33-25-51-35z m80 60c4 4 6 6 7 10 14 12 26 27 38 41l-24 20c-12-14-23-28-35-39-2-2-6-6-8-8z m99 135l-27 16c-10-20-22-37-33-55l27-18c12 18 24 38 33 57z m-310-219c-20-6-41-9-63-13l6-32c22 4 43 8 65 14z m88 35c-20-9-39-19-59-25l12-29c21 6 41 15 60 25z m226 608c-10 19-19 41-33 59l-25-18c11-18 21-35 31-55z m-76 64l-45 47 22 22 46-45z m-846-599l0-31 172 0 16 15 0 172-31 0 0-143-14-13z m750 703l0-172 32 0 0 143 13 13 143 0 0 32-172 0z" horiz-adv-x="1000" />
<glyph glyph-name="glyph-80" unicode="&#xe850;" d="m516 913l0-32c9 0 19 0 29-2l4 32c-12 2-22 2-33 2z m66-4l-6-32c22-4 43-7 63-13l8 31c-22 6-43 10-65 14z m404-592l-29 6c-6-20-12-39-19-59l29-12c8 20 15 41 19 65z m14 99l-31 0c0-19-2-41-6-62l31-4c4 22 6 43 6 66z m-146-328l-22 22 45 47 23-24z m-174 795l-12-29c20-6 39-16 59-25l13 29c-19 10-39 19-60 25z m273-662l-27 14c-10-20-20-37-31-55l25-17c14 19 23 39 33 58z m8 289c4-19 6-41 8-62l31 2c-2 23-4 45-8 66z m-72 174c11-18 23-35 33-55l27 16c-9 20-21 39-33 57z m45-82c7-20 15-39 21-61l29 8c-5 22-11 43-21 65z m-84 178l-22-24c2-2 6-6 8-8 12-11 23-25 35-39l24 20c-12 14-24 29-38 41-1 4-3 6-7 10z m-96 33c18-10 35-22 51-35l19 23c-17 14-35 28-54 39z m59-731l0 143-32 0 0-172 16-15 172 0 0 31-143 0z m-329-138c-9 0-19 0-29 2l-4-32c12-2 22-2 33-2z m-308 80c17-14 35-28 55-39l15 27c-17 10-35 22-51 35z m-176 351c2-23 4-44 8-66l31 6c-4 19-6 41-8 62z m16-99c6-22 11-43 21-65l29 12c-7 20-15 39-21 61z m27 226c6 20 12 39 20 59l-30 12c-8-20-15-41-19-65z m230-506l-13-29c19-10 39-19 60-25l12 29c-19 6-39 16-59 25z m-273 413l31 0c0 19 2 41 6 62l-31 4c-4-21-6-43-6-66z m47 195l27-14c10 20 20 37 32 55l-26 18c-14-20-23-40-33-59z m4-424c10-19 21-39 33-57l27 18c-11 18-23 35-33 55z m99-135l22 24c-2 2-6 6-8 8-12 11-23 25-35 39l-23-20c11-14 23-29 37-41 2-4 4-6 7-10z m-27 623l-23 24 47 45 21-22z m238-707l-7-31c21-6 43-10 64-14l6 32c-22 4-43 7-63 13z m-330 827l0-32 143 0 14-13 0-143 31 0 0 172-16 16z" horiz-adv-x="1000" />
<glyph glyph-name="glyph-81" unicode="&#xe851;" d="m27-84l317 319 0-135 31 0 0 172-16 16-171 0 0-32 134 0-318-316z m598 184l31 0 0 135 317-319 23 24-318 316 135 0 0 32-172 0-16-16z m0 625l0-172 16-15 172 0 0 31-135 0 318 316-23 24-317-319 0 135z m-437-187l171 0 16 15 0 172-31 0 0-135-317 319-23-24 318-316-134 0z" horiz-adv-x="1000" />
<glyph glyph-name="glyph-82" unicode="&#xe852;" d="m27 346l-23-23 406-407 24 24-194 191 198 198 0-135 31 0 0 172-16 15-172 0 0-31 135 0-197-197z m504 285l0-172 16-15 172 0 0 31-135 0 197 197 192-193 23 23-406 407-24-24 194-191-197-197 0 134z" horiz-adv-x="1000" />
<glyph glyph-name="glyph-83" unicode="&#xe853;" d="m719 444l0 31-135 0 412 410-23 24-410-412 0 134-32 0 0-172 16-15z m-692-528l411 413 0-135 31 0 0 172-16 15-172 0 0-31 135 0-412-410z" horiz-adv-x="1000" />
<glyph glyph-name="glyph-84" unicode="&#xe854;" d="m715 510l-25 24-112-110 0-23 112-110 23 24-82 82 369 0 0 31-369 0z m-430 0l84-82-369 0 0-31 369 0-84-82 26-24 111 110 0 23-111 110z" horiz-adv-x="1000" />
<glyph glyph-name="glyph-85" unicode="&#xe855;" d="m63 913l0-1001 31 0 0 485 275 0-84-82 26-24 111 110 0 23-111 110-24-24 82-82-275 0 0 485z m627-379l-112-110 0-23 112-110 23 24-82 82 275 0 0-485 32 0 0 1001-32 0 0-485-275 0 82 82z" horiz-adv-x="1000" />
<glyph glyph-name="glyph-86" unicode="&#xe856;" d="m0 819l484 0 0-276-82 84-23-25 109-111 24 0 109 111-23 23-82-82 0 276 484 0 0 31-1000 0z m516-537l82-84 23 25-109 111-24 0-109-111 23-23 82 82 0-276-484 0 0-31 1000 0 0 31-484 0z" horiz-adv-x="1000" />
<glyph glyph-name="glyph-87" unicode="&#xe857;" d="m516 543l0 370-32 0 0-370-82 84-23-25 109-111 24 0 109 111-23 23z m-28-209l-109-111 23-23 82 82 0-370 32 0 0 370 82-84 23 25-109 111z" horiz-adv-x="1000" />
<glyph glyph-name="glyph-88" unicode="&#xe858;" d="m219 204l281-299 281 299 0 709-562 0z m31 677l500 0 0-666-250-263-250 263z" horiz-adv-x="1000" />
<glyph glyph-name="glyph-89" unicode="&#xe859;" d="m291 694l-299-281 299-282 709 0 0 563z m678-531l-666 0-264 250 264 250 666 0z" horiz-adv-x="1000" />
<glyph glyph-name="glyph-90" unicode="&#xe85a;" d="m0 694l0-563 709 0 299 282-299 281z m697-531l-666 0 0 500 666 0 264-250z" horiz-adv-x="1000" />
<glyph glyph-name="glyph-91" unicode="&#xe85b;" d="m500 920l-281-298 0-710 562 0 0 710z m250-976l-500 0 0 666 250 263 250-263z" horiz-adv-x="1000" />
<glyph glyph-name="glyph-92" unicode="&#xe85c;" d="m719 881l0 32-313 0 0-948-113 116-23-26 140-143 24 0 140 143-23 24-113-114 0 916z" horiz-adv-x="1000" />
<glyph glyph-name="glyph-93" unicode="&#xe85d;" d="m281 881l282 0 0-916-114 116-23-26 140-143 24 0 141 143-24 24-113-114 0 948-313 0z" horiz-adv-x="1000" />
<glyph glyph-name="glyph-94" unicode="&#xe85e;" d="m168 620l-25 23-143-141 0-23 143-141 23 24-113 113 916 0 0-281 31 0 0 312-947 0z" horiz-adv-x="1000" />
<glyph glyph-name="glyph-95" unicode="&#xe85f;" d="m969 350l-916 0 115 113-25 24-143-141 0-23 143-141 23 24-113 113 947 0 0 312-31 0z" horiz-adv-x="1000" />
<glyph glyph-name="glyph-96" unicode="&#xe860;" d="m31 475l916 0-115-113 25-24 143 141 0 23-143 141-23-23 113-114-947 0 0-312 31 0z" horiz-adv-x="1000" />
<glyph glyph-name="glyph-97" unicode="&#xe861;" d="m832 206l25-24 143 141 0 23-143 141-23-24 113-113-916 0 0 281-31 0 0-312 947 0z" horiz-adv-x="1000" />
<glyph glyph-name="glyph-98" unicode="&#xe862;" d="m281-56l0-32 313 0 0 948 113-115 24 25-141 143-24 0-140-143 23-23 114 113 0-916z" horiz-adv-x="1000" />
<glyph glyph-name="glyph-99" unicode="&#xe863;" d="m719-88l0 32-281 0 0 916 113-115 23 25-140 143-24 0-140-143 23-23 113 113 0-948z" horiz-adv-x="1000" />
<glyph glyph-name="glyph-100" unicode="&#xe864;" d="m484 913l0-948-113 116-23-26 140-143 24 0 140 143-23 24-113-114 0 948z" horiz-adv-x="1000" />
<glyph glyph-name="glyph-101" unicode="&#xe865;" d="m484 350l32 0 0-62-32 0z m0 281l32 0 0-62-32 0z m0-187l32 0 0-63-32 0z m0 94l32 0 0-63-32 0z m0 187l32 0 0-62-32 0z m0 188l32 0 0-63-32 0z m0-94l32 0 0-63-32 0z m0-563l32 0 0-62-32 0z m0-93l32 0 0-63-32 0z m0-94l32 0 0-16-32 0z m4-157l24 0 140 143-23 24-129-129-129 131-23-26z" horiz-adv-x="1000" />
<glyph glyph-name="glyph-102" unicode="&#xe866;" d="m168 541l-25 24-143-141 0-23 143-141 23 24-113 113 947 0 0 31-947 0z" horiz-adv-x="1000" />
<glyph glyph-name="glyph-103" unicode="&#xe867;" d="m656 428l63 0 0-31-63 0z m-93 0l62 0 0-31-62 0z m-94 0l62 0 0-31-62 0z m281 0l63 0 0-31-63 0z m94 0l62 0 0-31-62 0z m94 0l62 0 0-31-62 0z m-750 0l62 0 0-31-62 0z m93 0l63 0 0-31-63 0z m94 0l63 0 0-31-63 0z m-281 0l62 0 0-31-62 0z m49 137l-143-141 0-23 143-141 23 24-113 113 10 0 0 31-10 0 113 113z" horiz-adv-x="1000" />
<glyph glyph-name="glyph-104" unicode="&#xe868;" d="m832 284l25-24 143 141 0 23-143 141-23-24 113-113-947 0 0-31 947 0z" horiz-adv-x="1000" />
<glyph glyph-name="glyph-105" unicode="&#xe869;" d="m375 428l63 0 0-31-63 0z m-281 0l62 0 0-31-62 0z m94 0l62 0 0-31-62 0z m93 0l63 0 0-31-63 0z m-281 0l63 0 0-31-63 0z m844 0l62 0 0-31-62 0z m-94 0l63 0 0-31-63 0z m-94 0l63 0 0-31-63 0z m-93 0l62 0 0-31-62 0z m-94 0l62 0 0-31-62 0z m388-168l143 141 0 23-143 141-23-24 113-113-9 0 0-31 9 0-113-113z" horiz-adv-x="1000" />
<glyph glyph-name="glyph-106" unicode="&#xe86a;" d="m516-88l0 948 113-115 23 25-140 143-24 0-140-143 23-23 113 113 0-948z" horiz-adv-x="1000" />
<glyph glyph-name="glyph-107" unicode="&#xe86b;" d="m484 69l32 0 0-63-32 0z m0 562l32 0 0-62-32 0z m0-468l32 0 0-63-32 0z m0 187l32 0 0-62-32 0z m0 375l32 0 0-62-32 0z m0-469l32 0 0-62-32 0z m0 188l32 0 0-63-32 0z m0 375l32 0 0-63-32 0z m0-844l32 0 0-63-32 0z m0 563l32 0 0-63-32 0z m-113 207l113 115 0-10 32 0 0 10 113-115 23 25-140 143-24 0-140-143z" horiz-adv-x="1000" />
<glyph glyph-name="glyph-108" unicode="&#xe86c;" d="m391 231l-176 178-24-26 188-189 23 0 375 377-23 23z m-391-319l1000 0 0 1001-1000 0z m31 969l938 0 0-937-938 0z" horiz-adv-x="1000" />
<glyph glyph-name="glyph-109" unicode="&#xe86d;" d="m500 293l-254 256-23-25 265-268 24 0 265 268-23 23z m-500-381l1000 0 0 1001-1000 0z m31 969l938 0 0-937-938 0z" horiz-adv-x="1000" />
<glyph glyph-name="glyph-110" unicode="&#xe86e;" d="m375 647l-31 0 0-375 15-16 375 0 0 32-359 0z m-375-735l1000 0 0 1001-1000 0z m31 969l938 0 0-937-938 0z" horiz-adv-x="1000" />
<glyph glyph-name="glyph-111" unicode="&#xe86f;" d="m625 288l-359 0 0-32 375 0 15 16 0 375-31 0z m-625-376l1000 0 0 1001-1000 0z m31 969l938 0 0-937-938 0z" horiz-adv-x="1000" />
<glyph glyph-name="glyph-112" unicode="&#xe870;" d="m565 690l-268-266 0-23 268-266 23 24-254 254 254 253z m-565-778l1000 0 0 1001-1000 0z m31 969l938 0 0-937-938 0z" horiz-adv-x="1000" />
<glyph glyph-name="glyph-113" unicode="&#xe871;" d="m219 444l562 0 0-31-562 0z m-219-532l1000 0 0 1001-1000 0z m31 969l938 0 0-937-938 0z" horiz-adv-x="1000" />
<glyph glyph-name="glyph-114" unicode="&#xe872;" d="m484 131l32 0 0 266 265 0 0 31-265 0 0 266-32 0 0-266-265 0 0-31 265 0z m-484 782l0-1001 1000 0 0 1001z m969-969l-938 0 0 937 938 0z" horiz-adv-x="1000" />
<glyph glyph-name="glyph-115" unicode="&#xe873;" d="m713 635l-22 22-191-194-193 192-22-22 194-191-192-194 22-21 191 193 193-191 22 21-193 192z m-713-723l1000 0 0 1001-1000 0z m31 969l938 0 0-937-938 0z" horiz-adv-x="1000" />
<glyph glyph-name="glyph-116" unicode="&#xe874;" d="m410 666l256-253-256-254 26-24 267 266 0 23-267 266z m-410-754l1000 0 0 1001-1000 0z m31 969l938 0 0-937-938 0z" horiz-adv-x="1000" />
<glyph glyph-name="glyph-117" unicode="&#xe875;" d="m488 569l-265-268 23-23 254 254 254-256 23 25-265 268z m-488-657l1000 0 0 1001-1000 0z m31 969l938 0 0-937-938 0z" horiz-adv-x="1000" />
<glyph glyph-name="glyph-118" unicode="&#xe876;" d="m344 553l0-375 31 0 0 360 359 0 0 31-375 0z m-344-641l1000 0 0 1001-1000 0z m31 969l938 0 0-937-938 0z" horiz-adv-x="1000" />
<glyph glyph-name="glyph-119" unicode="&#xe877;" d="m266 569l0-31 359 0 0-360 31 0 0 375-15 16z m-266-657l1000 0 0 1001-1000 0z m31 969l938 0 0-937-938 0z" horiz-adv-x="1000" />
<glyph glyph-name="glyph-120" unicode="&#xe878;" d="m453 913l-453 0 0-454 453 0z m-31-422l-391 0 0 390 391 0z m125-32l453 0 0 454-453 0z m31 422l391 0 0-390-391 0z m-125-515l-453 0 0-454 453 0z m-31-422l-391 0 0 390 391 0z m125-32l453 0 0 454-453 0z m31 422l391 0 0-390-391 0z" horiz-adv-x="1000" />
<glyph glyph-name="glyph-121" unicode="&#xe879;" d="m813 913l0-32 134 0-365-363 24-23 363 365 0-135 31 0 0 172-16 16z m-418-582l-364-366 0 135-31 0 0-172 16-16 172 0 0 32-135 0 365 363z m218-55l-250 250 24 23 250-250z" horiz-adv-x="1000" />
<glyph glyph-name="glyph-122" unicode="&#xe87a;" d="m969-35l-363 366-24-24 365-363-134 0 0-32 171 0 16 16 0 172-31 0z m-574 530l23 23-365 363 135 0 0 32-172 0-16-16 0-172 31 0 0 135z m-32-196l250 250 24-23-250-250z" horiz-adv-x="1000" />
<glyph glyph-name="glyph-123" unicode="&#xe87b;" d="m813 913l0-32 134 0-447-447-473 475-23-24 475-472-448-448 0 135-31 0 0-172 16-16 172 0 0 32-135 0 447 447 473-475 23 24-474 473 447 447 0-135 31 0 0 172-16 16z" horiz-adv-x="1000" />
<glyph glyph-name="glyph-124" unicode="&#xe87c;" d="m969-35l-447 448 474 472-23 24-473-475-447 447 135 0 0 32-172 0-16-16 0-172 31 0 0 135 448-447-475-473 23-24 473 475 447-447-134 0 0-32 171 0 16 16 0 172-31 0z" horiz-adv-x="1000" />
<glyph glyph-name="glyph-125" unicode="&#xe87d;" d="m848 526l99-98-353 0 0-31 353 0-99-98 25-23 127 125 0 23-127 125z m-696 0l-25 23-127-125 0-23 127-125 23 23-97 98 353 0 0 31-353 0z m332 58l32 0 0-343-32 0z" horiz-adv-x="1000" />
<glyph glyph-name="glyph-126" unicode="&#xe87e;" d="m848 526l99-98-431 0 0 485-32 0 0-485-431 0 99 98-25 23-127-125 0-23 127-125 23 23-97 98 431 0 0-485 32 0 0 485 431 0-99-98 25-23 127 125 0 23-127 125z" horiz-adv-x="1000" />
<glyph glyph-name="glyph-127" unicode="&#xe87f;" d="m488 913l-125-127 24-24 97 98 0-354 32 0 0 354 97-100 24 26-125 127z m28-948l0 354-32 0 0-354-97 100-24-25 125-128 24 0 125 128-24 23z m-188 463l344 0 0-31-344 0z" horiz-adv-x="1000" />
<glyph glyph-name="glyph-128" unicode="&#xe880;" d="m516 860l97-100 24 26-125 127-24 0-125-127 24-24 97 98 0-432-484 0 0-31 484 0 0-432-97 100-24-25 125-128 24 0 125 128-24 23-97-98 0 432 484 0 0 31-484 0z" horiz-adv-x="1000" />
<glyph glyph-name="glyph-129" unicode="&#xe881;" d="m857 104l143 141 0 23-143 141-23-24 113-113-806 0 0-31 806 0-113-114z m-712 617l-145-140 0-24 145-141 23 24-113 113 804 0 0 31-804 0 113 114z" horiz-adv-x="1000" />
<glyph glyph-name="glyph-130" unicode="&#xe882;" d="m672 53l2 807 113-115 22 25-141 143-21 0-141-143 21-23 116 113-2-807z m-479 2l141-143 22 0 140 143-21 24-114-114-2 807-31 0 2-807-115 114z" horiz-adv-x="1000" />
<glyph glyph-name="glyph-131" unicode="&#xe883;" d="m777 301l-265 268-24 0-265-268 23-23 254 254 254-254z" horiz-adv-x="1000" />
<glyph glyph-name="glyph-132" unicode="&#xe884;" d="m488 678l-265-267 23-24 254 254 254-254 23 24-265 267z m0-234l-265-268 23-23 254 254 254-254 23 23-265 268z" horiz-adv-x="1000" />
<glyph glyph-name="glyph-133" unicode="&#xe885;" d="m375 538l359 0 0 31-375 0-15-16 0-375 31 0z" horiz-adv-x="1000" />
<glyph glyph-name="glyph-134" unicode="&#xe886;" d="m656 178l0 375-15 16-375 0 0-31 359 0 0-360z" horiz-adv-x="1000" />
<glyph glyph-name="glyph-135" unicode="&#xe887;" d="m402 49l-23-25 109-112 24 0 109 112-23 23-82-82 0 895 82-84 23 25-109 112-24 0-109-112 23-23 82 82 0-895z" horiz-adv-x="1000" />
<glyph glyph-name="glyph-136" unicode="&#xe888;" d="m500 915c-135 0-260-53-355-147-94-96-147-221-147-355 0-135 53-260 147-354 95-96 220-147 355-147 0 0 0 0 0 0l0 0c277 0 502 225 502 501 0 134-53 259-146 355-96 94-221 147-356 147z m0-973l0-16 0 18c0 0 0 0 0 0-125 0-244 49-332 137-90 89-139 207-139 332 0 127 49 244 139 332 88 89 207 138 332 138 125 0 244-49 332-138 90-88 139-207 139-332 0-260-205-471-471-471z m0 830c-96 0-185-37-254-106-68-68-105-158-105-253l31 0c0 87 33 169 96 232 62 62 144 96 232 96 88 0 170-34 232-96 63-63 96-145 96-232l31 0c0 95-37 185-105 253-68 69-158 106-254 106z m-19-363l-94 107-24-19 96-110c-4-8-6-14-6-21 0-14 6-26 14-34 10-9 21-13 33-13 12 0 23 6 33 13 18 20 18 49 0 67-13 14-35 16-52 10z m31-55c-6-6-18-6-24 0-2 4-4 8-4 12 0 4 2 7 4 11 4 2 8 4 12 4 4 0 8-2 12-4 6-5 6-15 0-23z" horiz-adv-x="1000" />
<glyph glyph-name="glyph-137" unicode="&#xe889;" d="m922 413c0 232-190 421-422 421-232 0-422-189-422-421 0-166 98-313 238-381l-93-92 23-24 102 104c47-20 97-29 152-29 55 0 106 9 152 29l102-104 23 24-93 92c140 68 238 215 238 381z m-422-391c-215 0-391 176-391 391 0 214 176 390 391 390 215 0 391-176 391-390 0-215-176-391-391-391z m16 578l-32 0 0-197 133-67 16 28-117 58z m-518 193l39-193 229 229-194 39z m205 16l-146-146-24 119 51 50z m531 20l229-229 39 193-74 75z m209-166l-146 146 119 23 51-50z" horiz-adv-x="1000" />
<glyph glyph-name="glyph-138" unicode="&#xe88a;" d="m301 147l-156 47-20-12-47-156 31-8 36 119c62-137 201-225 355-225 156 0 295 90 357 229l51-125 28 12-63 156-17 10-157-47 8-31 121 37c-55-121-176-203-312-209l0 687 125 0 0 32-125 0 0 33c52 8 93 52 93 107 0 61-48 110-109 110-60 0-109-49-109-110 0-55 41-99 93-107l0-33-125 0 0-32 125 0 0-687c-136 6-257 88-312 209l121-37z m121 656c0 43 35 78 78 78 43 0 78-35 78-78 0-43-35-78-78-78-43 0-78 35-78 78z" horiz-adv-x="1000" />
<glyph glyph-name="glyph-139" unicode="&#xe88b;" d="m652 284l-136 134 0 307-32 0 0-318 145-147z m-589 144l62 0 0-31-62 0z m812 0l63 0 0-31-63 0z m-391-390l32 0 0-63-32 0z m0 812l32 0 0-62-32 0z m354-78l131 0 0 31-172 0-16-15 0-172 32 0 0 138 70-70c57-80 86-174 86-271 0-258-211-469-469-469-258 0-469 211-469 469 0 257 211 468 469 468l0 32c-275 0-500-225-500-500 0-276 225-501 500-501 275 0 500 225 500 501 0 105-31 205-94 291z" horiz-adv-x="1000" />
<glyph glyph-name="glyph-140" unicode="&#xe88c;" d="m938 288l-2 0-94 625-684 0-93-625-2 0 0-376 875 0z m-752 593l629 0 89-593-248 0 0-16c0-86-70-156-156-156-86 0-156 70-156 156l0 16-248 0z m720-937l-812 0 0 312 219 0c7-95 89-172 187-172 98 0 180 77 188 172l218 0z" horiz-adv-x="1000" />
<glyph glyph-name="glyph-141" unicode="&#xe88d;" d="m938 288l-2 0-94 625-684 0-93-625-2 0 0-376 875 0z m-752 593l629 0 89-593-248 0 0-16c0-86-70-156-156-156-86 0-156 70-156 156l0 16-248 0z m720-937l-812 0 0 312 219 0c7-95 89-172 187-172 98 0 180 77 188 172l218 0z m-718 500l625 0 0-31-625 0z m31 156l562 0 0-31-562 0z m31 156l500 0 0-31-500 0z" horiz-adv-x="1000" />
<glyph glyph-name="glyph-142" unicode="&#xe88e;" d="m500-88c133 0 260 53 354 147 93 94 146 221 146 354 0 132-53 259-146 353-94 94-221 147-354 147-133 0-260-53-353-147-94-94-147-221-147-353 0-133 53-260 147-354 93-94 220-147 353-147z m332 833c88-90 137-207 137-332 0-120-45-233-127-321l-662 662c88 82 201 127 320 127 125 0 242-49 332-136z m-674-12l662-662c-88-82-201-127-320-127-125 0-242 49-332 137-88 89-137 207-137 332 0 119 45 232 127 320z" horiz-adv-x="1000" />
<glyph glyph-name="glyph-143" unicode="&#xe88f;" d="m938 288l62 0 0 218-62 0 0 94-938 0 0-406 938 0z m31 187l0-156-31 0 0 156z m-63-250l-875 0 0 344 875 0z m-31 313l-812 0 0-282 812 0z m-31-250l-750 0 0 218 750 0z m-406 132l0-93 130 56-11 28-88-38 0 94-131-56 12-28z" horiz-adv-x="1000" />
<glyph glyph-name="glyph-144" unicode="&#xe890;" d="m938 288l62 0 0 218-62 0 0 94-938 0 0-406 938 0z m31 187l0-156-31 0 0 156z m-63-250l-875 0 0 344 875 0z m-675 313l-168 0 0-282 238 0z m-137-32l113 0 55-218-168 0z" horiz-adv-x="1000" />
<glyph glyph-name="glyph-145" unicode="&#xe891;" d="m938 288l62 0 0 218-62 0 0 94-938 0 0-406 938 0z m31 187l0-156-31 0 0 156z m-63-250l-875 0 0 344 875 0z m-31 313l-812 0 0-282 812 0z m-31-250l-750 0 0 218 750 0z" horiz-adv-x="1000" />
<glyph glyph-name="glyph-146" unicode="&#xe892;" d="m938 288l62 0 0 218-62 0 0 94-938 0 0-406 938 0z m31 187l0-156-31 0 0 156z m-63-250l-875 0 0 344 875 0z m-441 313l-402 0 0-282 472 0z m-371-32l347 0 55-218-402 0z" horiz-adv-x="1000" />
<glyph glyph-name="glyph-147" unicode="&#xe893;" d="m611 905l-359-563 14-23 199 0-106-387 28-14 406 563-12 25-201 0 61 389z m-64-412l16-18 187 0-338-469 88 325-16 19-189 0 303 477z" horiz-adv-x="1000" />
<glyph glyph-name="glyph-148" unicode="&#xe894;" d="m844 913l-750 0 0-1001 750 0z m-719-32l94 0 0-937-94 0z m688-937l-563 0 0 937 563 0z m-500 750l437 0 0-31-437 0z m0-94l437 0 0-31-437 0z" horiz-adv-x="1000" />
<glyph glyph-name="glyph-149" unicode="&#xe895;" d="m750 913l-750 0 0-1001 750 0z m-719-32l94 0 0-937-94 0z m688-937l-563 0 0 937 563 0z m-500 750l437 0 0-31-437 0z m0-94l437 0 0-31-437 0z m781-519l0 800-156 0 0-62-63 0 0-172 32 0 0 141 31 0 0-707 78-157z m-125 769l94 0 0-762-47-94-47 94z" horiz-adv-x="1000" />
<glyph glyph-name="glyph-150" unicode="&#xe896;" d="m750 913l-750 0 0-1001 750 0z m-719-32l94 0 0-937-94 0z m688-937l-563 0 0 937 563 0z m-500 750l437 0 0-31-437 0z m0-94l437 0 0-31-437 0z m781-535l0 848-156 0 0-848 78-156z m-31 816l0-125-94 0 0 125z m-94-156l94 0 0-652-47-94-47 94z" horiz-adv-x="1000" />
<glyph glyph-name="glyph-151" unicode="&#xe897;" d="m266-93l234 234 234-234 0 1006-468 0z m31 974l406 0 0-900-203 203-203-203z" horiz-adv-x="1000" />
<glyph glyph-name="glyph-152" unicode="&#xe898;" d="m0-88l1000 0 0 1001-1000 0z m31 969l938 0 0-937-938 0z m266-93l-31 0 0-141-141 0 0-31 141 0 0-141 31 0 0 141 141 0 0 31-141 0z m266-141l312 0 0-31-312 0z m-168-316l-114-116-113 116-23-24 115-113-115-113 23-24 113 115 114-115 23 24-115 113 115 113z m168-75l312 0 0-31-312 0z m0-93l312 0 0-32-312 0z" horiz-adv-x="1000" />
<glyph glyph-name="glyph-153" unicode="&#xe899;" d="m828 834l-125 0 0-62-406 0 0 62-125 0 0-62-172 0 0-781 1000 0 0 781-172 0z m-94-31l63 0 0-94-63 0z m-531 0l63 0 0-94-63 0z m-172-781l0 594 938 0 0-594z m938 719l0-94-938 0 0 94 141 0 0-63 125 0 0 63 406 0 0-63 125 0 0 63z m-828-375l187 0 0 187-187 0z m31 156l125 0 0-125-125 0z m-31-438l187 0 0 188-187 0z m31 157l125 0 0-125-125 0z m500 125l187 0 0 187-187 0z m31 156l125 0 0-125-125 0z m-31-438l187 0 0 188-187 0z m31 157l125 0 0-125-125 0z m-297 125l188 0 0 187-188 0z m32 156l125 0 0-125-125 0z m-32-438l188 0 0 188-188 0z m32 157l125 0 0-125-125 0z" horiz-adv-x="1000" />
<glyph glyph-name="glyph-154" unicode="&#xe89a;" d="m496 735l-51 105-449-232 293-639 211 98 195-98 311 654-451 233z m-191-723l-270 580 395 205 49-97-250-498 234-118z m658 596l-283-596-408 205 298 596z m-430-360l201 92-17 221-201-92z m157 266l13-154-142-65-14 155z m-110 266l27-16-15-31-27 15z m-484-235l-16 32 27 15 16-31z m574-500l-27 16 15 31 28-15z" horiz-adv-x="1000" />
<glyph glyph-name="glyph-155" unicode="&#xe89b;" d="m500 67l195-98 311 654-451 233-59-121-51 105-449-232 293-639z m70 746l393-205-283-596-408 205z m-140-16l49-97-250-498 234-118-158-72-270 580z m150-17l27-16-15-31-27 15z m-484-235l-16 32 27 15 16-31z m574-500l-27 16 15 31 28-15z m-121 235l4-8 13 0c43 0 186 6 229 86 23 45 21 107-22 131-27 15-66 17-93 8 0 7-2 13-4 21-8 20-24 37-43 49-14 8-27 10-43 10-37 0-72-20-88-47-49-90 43-244 47-250z m-20 234c10 20 36 31 61 31 10 0 19-2 27-5 14-8 24-20 30-34 3-13 1-27-4-39l27-15c10 17 35 19 45 19 16 0 31-4 43-10 29-15 23-62 10-88-36-64-166-70-196-70-27 45-74 154-43 211z" horiz-adv-x="1000" />
<glyph glyph-name="glyph-156" unicode="&#xe89c;" d="m1000 647l-346 0c-6 37-31 125-154 125-123 0-148-88-154-125l-346 0 0-594 1000 0z m-500 94c96 0 117-65 123-94l-246 0c4 29 27 94 123 94z m469-125l0-157-938 0 0 157z m-531-188l125 0 0-62-125 0z m-407-344l0 344 375 0 0-94 188 0 0 94 375 0 0-344z" horiz-adv-x="1000" />
<glyph glyph-name="glyph-157" unicode="&#xe89d;" d="m500-88c121 0 234 47 320 133 86 86 133 200 133 321 0 121-47 234-133 320-82 82-189 129-304 133l0 62 78 0 0 32-188 0 0-32 78 0 0-62c-115-4-222-51-304-133-86-86-133-199-133-320 0-121 47-235 133-321 86-86 199-133 320-133z m-299 753c76 76 176 119 283 123l0-47 32 0 0 47c107-4 207-47 283-123 76-77 119-176 123-284l-47 0 0-31 47 0c-4-107-47-207-123-283-76-76-176-119-283-123l0 47-32 0 0-47c-107 4-207 47-283 123-76 76-119 176-123 283l47 0 0 31-47 0c4 108 47 207 123 284z m37-16l45-43-23-24-43 45z m502-500l43-45-21-22-45 43z m22 500l21-22-43-45-23 24z m-500-500l21-24-45-43-21 22z m238 154c35 0 63 28 63 63 0 29-20 52-47 60l0 158-32 0 0-158c-27-8-46-31-46-60 0-35 27-63 62-63z m0 94c18 0 31-14 31-31 0-18-13-32-31-32-18 0-31 14-31 32 0 17 13 31 31 31z" horiz-adv-x="1000" />
<glyph glyph-name="glyph-158" unicode="&#xe89e;" d="m266 209l0-203-63 0 0-94 594 0 0 94-47 0 0 203c0 49-80 108-213 196 133 88 213 146 213 195l0 219 47 0 0 94-594 0 0-94 63 0 0-219c0-49 80-107 213-195-133-88-213-147-213-196z m500-265l-532 0 0 31 532 0z m-532 937l532 0 0-31-532 0z m63-281l0 219 422 0 0-219c0-37-115-113-211-176-96 63-211 139-211 176z m211-215c96-62 211-138 211-176l0-203-422 0 0 203c0 38 115 114 211 176z" horiz-adv-x="1000" />
<glyph glyph-name="glyph-159" unicode="&#xe89f;" d="m500 913c-133 0-260-53-353-147-94-94-147-221-147-353 0-133 53-260 147-354 93-94 220-147 353-147 133 0 260 53 354 147 93 94 146 221 146 354 0 132-53 259-146 353-94 94-221 147-354 147z m332-832c-90-88-207-137-332-137-125 0-242 49-332 137-88 89-137 207-137 332 0 125 49 242 137 332 90 87 207 136 332 136 125 0 242-49 332-136 88-90 137-207 137-332 0-125-49-243-137-332z m-316 644l-32 0 0-318 145-147 23 24-136 134z m-453-297l62 0 0-31-62 0z m812 0l63 0 0-31-63 0z m-391-390l32 0 0-63-32 0z m0 812l32 0 0-62-32 0z" horiz-adv-x="1000" />
<glyph glyph-name="glyph-160" unicode="&#xe8a0;" d="m652 284l-136 134 0 307-32 0 0-318 145-147z m-589 144l62 0 0-31-62 0z m812 0l63 0 0-31-63 0z m-391-390l32 0 0-63-32 0z m0 812l32 0 0-62-32 0z m16 63l0-32c258 0 469-211 469-468 0-258-211-469-469-469-258 0-469 211-469 469 0 97 30 191 86 271l71 70 0-138 31 0 0 172-16 15-172 0 0-31 131 0-68-66 0-2c-63-86-94-186-94-291 0-276 225-501 500-501 275 0 500 225 500 501 0 275-225 500-500 500z" horiz-adv-x="1000" />
<glyph glyph-name="glyph-161" unicode="&#xe8a1;" d="m875 397c-8 174-158 312-342 312-164 0-308-107-342-250l-13 0c-98 0-178-76-178-171 0-96 76-172 172-172l687 0c79 0 141 62 141 140 0 75-55 133-125 141z m-16-250l-687 0c-78 0-141 62-141 141 0 78 65 140 147 140l39 0 2 12c25 137 160 238 314 238 170 0 311-133 311-297l0-15 15 0c61 0 110-49 110-110 0-60-49-109-110-109z" horiz-adv-x="1000" />
<glyph glyph-name="glyph-162" unicode="&#xe8a2;" d="m773 567c-23 0-46-4-70-12 14 31 22 65 22 98 0 125-100 226-225 226-125 0-227-101-227-224 0-35 10-69 24-100-24 8-47 12-70 12-125 0-227-102-227-227 0-125 102-226 227-226 88 0 179 39 226 107 0-78-19-277-94-277l0-32 282 0 0 32c-75 0-94 199-94 277 47-68 139-107 226-107 125 0 227 101 227 226 0 125-102 227-227 227z m0-422c-109 0-226 66-226 174l-31 0 0-94c0-25 2-207 64-281l-160 0c62 74 64 256 64 281l0 94-31 0c0-108-117-174-226-174-108 0-196 88-196 195 0 108 88 196 196 196 37 0 74-10 105-32l20 24c-30 35-47 80-47 125 0 107 88 195 195 195 107 0 195-88 195-195 0-45-17-90-47-125l20-24c31 22 68 32 105 32 108 0 196-88 196-196 0-107-88-195-196-195z" horiz-adv-x="1000" />
<glyph glyph-name="glyph-163" unicode="&#xe8a3;" d="m500-91c123 0 236 46 324 132 86 88 133 202 133 325 0 123-47 236-133 324-64 62-144 105-230 123 0 2 0 4 0 6 0 51-43 94-94 94-51 0-94-43-94-94 0-2 0-4 0-6-86-18-166-61-230-123-86-88-133-201-133-324 0-123 47-237 133-325 88-86 201-132 324-132z m0 972c35 0 63-27 63-62-22 4-41 4-63 4-21 0-41 0-62-4 0 35 27 62 62 62z m-301-215c76 79 178 122 285 125l0-66 32 0 0 66c107-3 209-46 285-125 78-76 121-177 125-285l-67 0 0-31 67 0c-4-107-47-209-125-285-76-78-178-121-285-125l0 66-32 0 0-66c-107 4-209 47-285 125-78 76-121 178-125 285l67 0 0 31-67 0c4 108 47 209 125 285z m385-392l8 8 125 297-20 19-297-125-7-8-110-281 20-19z m-12 41l-138 139 240 101z m-160 117l139-139-227-87z" horiz-adv-x="1000" />
<glyph glyph-name="glyph-164" unicode="&#xe8a4;" d="m766 491l0 156c138 10 140 154 140 156l0 16-140 0 0 94-532 0 0-94-140 0 0-16c0-2 2-146 140-156l0-156c0-80 102-137 250-141l0-406-171 0 0-32 375 0 0 32-172 0 0 406c148 4 250 61 250 141z m107 297c-4-32-23-102-107-110l0 110z m-746 0l107 0 0-110c-84 8-103 78-107 110z m139-297l0 390 468 0 0-390c0-55-80-110-234-110-154 0-234 55-234 110z" horiz-adv-x="1000" />
<glyph glyph-name="glyph-165" unicode="&#xe8a5;" d="m516-97l379 510-379 509-379-509z m340 510l-340-460-340 460 340 459z" horiz-adv-x="1000" />
<glyph glyph-name="glyph-166" unicode="&#xe8a6;" d="m0 100l484 0 0-156-140 0 0-32 312 0 0 32-140 0 0 156 484 0 0 672-1000 0z m969 31l-938 0 0 94 938 0z m0 610l0-485-938 0 0 485z" horiz-adv-x="1000" />
<glyph glyph-name="glyph-167" unicode="&#xe8a7;" d="m484 506l0-463-97 100-24-25 125-127 24 0 125 127-24 23-97-98 0 463z m-109-234l-344 0 0 531 938 0 0-531-344 0 0-31 375 0 0 593-1000 0 0-593 375 0z" horiz-adv-x="1000" />
<glyph glyph-name="glyph-168" unicode="&#xe8a8;" d="m500-88c133 0 260 53 354 147 93 94 146 221 146 354 0 132-53 259-146 353-94 94-221 147-354 147-133 0-260-53-353-147-94-94-147-221-147-353 0-133 53-260 147-354 93-94 220-147 353-147z m-332 833c90 87 207 136 332 136 125 0 242-49 332-136 88-90 137-207 137-332 0-125-49-243-137-332-90-88-207-137-332-137-125 0-242 49-332 137-88 89-137 207-137 332 0 125 49 242 137 332z m316-98l32 0 0-344-32 0z m0-406l32 0 0-63-32 0z" horiz-adv-x="1000" />
<glyph glyph-name="glyph-169" unicode="&#xe8a9;" d="m500 163c316 0 490 230 496 240l8 10-8 9c-6 10-180 241-496 241-316 0-490-231-496-241l-8-9 8-10c6-10 180-240 496-240z m0 468c266 0 428-175 465-218-37-43-199-219-465-219-266 0-428 176-465 219 37 43 199 218 465 218z m0-343c68 0 125 56 125 125 0 68-57 125-125 125-68 0-125-57-125-125 0-69 57-125 125-125z m0 218c51 0 94-43 94-93 0-51-43-94-94-94-51 0-94 43-94 94 0 50 43 93 94 93z" horiz-adv-x="1000" />
<glyph glyph-name="glyph-170" unicode="&#xe8aa;" d="m272 206l-143-141 23-24 151 153c58-20 123-31 197-31 316 0 490 230 496 240l8 10-8 9c-4 6-96 129-267 198l142 140-23 24-151-153c-58 20-123 32-197 32-316 0-490-231-496-241l-8-9 8-10c4-6 96-129 268-197z m693 207c-37-43-199-219-465-219-62 0-119 10-172 25l96 96c21-18 47-27 76-27 68 0 125 56 125 125 0 29-10 54-27 76l105 105c147-53 237-150 262-181z m-559 0c0 50 43 93 94 93 20 0 39-6 55-17l-131-131c-12 15-18 35-18 55z m188 0c0-51-43-94-94-94-19 0-39 6-55 17l131 131c12-15 18-35 18-54z m-94 218c63 0 119-9 172-25l-96-96c-21 18-47 28-76 28-68 0-125-57-125-125 0-30 10-55 27-77l-105-105c-147 53-236 150-262 182 37 43 199 218 465 218z" horiz-adv-x="1000" />
<glyph glyph-name="glyph-171" unicode="&#xe8ab;" d="m609 913c-214 0-390-176-390-391 0-102 39-195 103-266l-174-174-121 124-23-24 123-121-123-121 23-24 121 124 122-124 23 24-123 121 174 174c70-65 164-104 265-104 215 0 391 176 391 391 0 215-176 391-391 391z m0-750c-197 0-359 162-359 359 0 197 162 359 359 359 198 0 360-162 360-359 0-197-162-359-360-359z" horiz-adv-x="1000" />
<glyph glyph-name="glyph-172" unicode="&#xe8ac;" d="m203 834l0 79-31 0 0-1001 31 0 0 516 651 0-102 203 102 203z m600-375l-600 0 0 344 600 0-86-172z" horiz-adv-x="1000" />
<glyph glyph-name="glyph-173" unicode="&#xe8ad;" d="m516 756l0 78-391 0 0 79-31 0 0-1001 31 0 0 516 266 0 0-78 525 0-101 203 101 203z m-67 0l35 30 0-30z m-324-297l0 344 332 0-66-55 0-289z m740-78l-443 0 0 344 443 0-86-172z" horiz-adv-x="1000" />
<glyph glyph-name="glyph-174" unicode="&#xe8ae;" d="m781 913l-781 0 0-1001 1000 0 0 803-197 198z m-31-32l0-265-500 0 0 265z m-625-937l0 469 750 0 0-469z m844 0l-63 0 0 500-812 0 0-500-63 0 0 937 188 0 0-297 562 0 0 297 10 0 178-177z m-750 375l562 0 0-31-562 0z m0-125l562 0 0-31-562 0z m0-125l562 0 0-31-562 0z m469 781l-110 0 0-203 110 0z m-32-172l-47 0 0 141 47 0z" horiz-adv-x="1000" />
<glyph glyph-name="glyph-175" unicode="&#xe8af;" d="m350 772l-350 0 0-719 1000 0 0 594-525 0z m619-688l-938 0 0 657 307 0 125-125 506 0z" horiz-adv-x="1000" />
<glyph glyph-name="glyph-176" unicode="&#xe8b0;" d="m891 584l-467 0-111 110-313 0 0-641 891 0z m-32-500l-828 0 0 579 270 0 111-110 447 0z m-437 735l-313 0 0-110 32 0 0 79 269 0 112-110 447 0 0-469-63 0 0-31 94 0 0 531-467 0z" horiz-adv-x="1000" />
<glyph glyph-name="glyph-177" unicode="&#xe8b1;" d="m830 596l98 98-147 146-97-97-75 25 0 145-218 0 0-145-75-25-97 97-147-146 98-98-25-74-145 0 0-219 145 0 25-74-98-98 147-146 97 97 75-25 0-145 218 0 0 145 75 25 97-97 147 146-98 98 26 74 144 0 0 219-144 0z m139-262l-137 0-37-113 90-90-104-103-90 90-113-37 0-137-156 0 0 137-113 37-90-90-104 103 90 90-37 113-137 0 0 157 137 0 37 113-90 90 104 103 90-90 113 38 0 136 156 0 0-136 113-38 90 90 104-103-90-90 37-113 137 0z m-469 188c-60 0-109-49-109-109 0-61 49-110 109-110 61 0 109 49 109 110 0 60-48 109-109 109z m0-188c-43 0-78 36-78 79 0 43 35 78 78 78 43 0 78-35 78-78 0-43-35-79-78-79z" horiz-adv-x="1000" />
<glyph glyph-name="glyph-178" unicode="&#xe8b2;" d="m609 569c0 60-48 109-109 109-60 0-109-49-109-109 0-61 49-110 109-110 61 0 109 49 109 110z m-187 0c0 43 35 78 78 78 43 0 78-35 78-78 0-43-35-78-78-78-43 0-78 35-78 78z m78-664l12 13c13 16 334 393 332 639 0 195-154 356-344 356-189 0-344-161-344-356 0-246 319-623 332-639z m0 976c172 0 313-144 313-324 0-209-254-533-313-604-59 71-312 395-312 604 0 180 140 324 312 324z" horiz-adv-x="1000" />
<glyph glyph-name="glyph-179" unicode="&#xe8b3;" d="m578 616c0 43-35 78-78 78-43 0-78-35-78-78 0-43 35-78 78-78 43 0 78 35 78 78z m-125 0c0 25 22 47 47 47 25 0 47-22 47-47 0-26-22-47-47-47-25 0-47 21-47 47z m47-463l12 15c8 10 207 256 207 416 0 129-100 235-219 235-121 0-219-106-219-235 0-160 198-406 207-416z m0 635c104 0 188-92 188-204 0-127-145-324-188-380-43 56-187 253-187 380 0 112 84 204 187 204z m172-438l0-31 131 0 154-281-914 0 154 281 131 0 0 31-150 0-190-344 1024 0-190 344z" horiz-adv-x="1000" />
<glyph glyph-name="glyph-180" unicode="&#xe8b4;" d="m906 475c0-217-189-406-406-406-144 0-189 56-191 56l-24-19c2-2 49-65 199-68l0-94-140 0 0-32 312 0 0 32-140 0 0 94c226 9 422 209 422 437 0 232-206 438-438 438l0-32c217 0 406-189 406-406z m-406-328c182 0 328 146 328 328 0 182-146 328-328 328-182 0-328-146-328-328 0-182 146-328 328-328z m0 625c164 0 297-133 297-297 0-164-133-297-297-297-164 0-297 133-297 297 0 164 133 297 297 297z" horiz-adv-x="1000" />
<glyph glyph-name="glyph-181" unicode="&#xe8b5;" d="m516 803l0 110-32 0 0-110c-203-8-367-172-375-375l-109 0 0-31 109 0c8-203 172-367 375-375l0-110 32 0 0 110c203 8 367 172 375 375l109 0 0 31-109 0c-8 203-172 367-375 375z m0-750l0 110-32 0 0-110c-185 8-336 158-343 344l109 0 0 31-109 0c7 186 158 336 343 344l0-109 32 0 0 109c185-8 336-158 343-344l-109 0 0-31 109 0c-7-186-158-336-343-344z" horiz-adv-x="1000" />
<glyph glyph-name="glyph-182" unicode="&#xe8b6;" d="m641 325l-276 275 188 188-82 82-12-6c0-2-39-30-88-30-35 0-66 16-94 43l-11 10-272-271 194-194 156 157 275-276-47-47 319-318 115 115-318 319z m-604 291l229 228c31-27 66-41 105-41 43 0 78 18 96 28l43-43-322-323z m854-635l-276 275 73 73 275-276z" horiz-adv-x="1000" />
<glyph glyph-name="glyph-183" unicode="&#xe8b7;" d="m828 491l-15 0 0 78c0 2-4 265-313 265-309 0-312-263-312-265l0-78-16 0c-96 0-172-76-172-172 0-96 76-172 172-172l47 0 0 422c0 10 4 234 281 234 277 0 281-224 281-234l0-475-203-80 0 55-156 0 0-94 144 0 247 100 0 72 15 0c96 0 172 76 172 172 0 96-76 172-172 172z m-640-313l-16 0c-78 0-141 63-141 141 0 78 63 140 141 140l16 0z m265-172l0 32 94 0 0-32z m375 172l-15 0 0 281 15 0c78 0 141-62 141-140 0-78-63-141-141-141z" horiz-adv-x="1000" />
<glyph glyph-name="glyph-184" unicode="&#xe8b8;" d="m750 850c-115 0-213-64-250-154-37 90-135 154-250 154-156 0-250-135-250-266 0-134 84-277 248-425 121-110 242-182 244-182l8-4 8 4c2 0 123 72 244 182 164 148 248 291 248 425 0 131-94 266-250 266z m-250-842c-62 39-469 297-469 576 0 116 82 235 219 235 113 0 234-78 234-203l32 0c0 125 121 203 234 203 137 0 219-119 219-235 0-279-406-537-469-576z" horiz-adv-x="1000" />
<glyph glyph-name="glyph-185" unicode="&#xe8b9;" d="m500 696c-37 90-135 154-250 154-156 0-250-135-250-266 0-134 84-277 248-425 121-110 242-182 244-182l8-4 8 4c2 0 123 72 244 182 164 148 248 291 248 425 0 131-94 266-250 266-115 0-213-64-250-154z m-469-112c0 116 82 235 219 235 113 0 234-78 234-203l0-8 86-72-123-123 94-94-94-94 94-94-92-90c-125 84-418 307-418 543z m938 0c0-279-406-537-469-576-6 4-14 10-23 16l107 107-94 94 94 94-94 94 127 127-101 83c6 122 123 196 234 196 137 0 219-119 219-235z" horiz-adv-x="1000" />
<glyph glyph-name="glyph-186" unicode="&#xe8ba;" d="m516-88l0 110c109 4 209 55 277 131l119-96 20 24-119 97c48 65 78 147 78 235 0 85-28 164-75 228l116 88-20 23-115-87c-68 82-168 134-281 138l0 110-32 0 0-110c-109-4-209-55-277-131l-119 96-20-23 120-98c-49-65-79-147-79-234 0-86 28-165 75-229l-116-88 20-23 115 88c69-82 168-135 281-139l0-110z m-125 501c0 60 49 109 109 109 61 0 109-49 109-109 0-61-48-110-109-110-60 0-109 49-109 110z m125-360l0 219c31 4 60 18 82 39l170-137c-63-70-153-117-252-121z m343 360c0-81-27-155-72-215l-170 136c16 24 24 49 24 79 0 27-8 54-24 76l174 133c43-59 68-131 68-209z m-86 234l-175-133c-22 20-51 35-82 39l0 219c103-4 193-53 257-125z m-289 125l0-219c-31-4-60-17-82-39l-170 137c63 70 153 117 252 121z m-343-359c0 80 27 154 72 214l170-136c-16-24-24-49-24-78 0-28 8-55 24-77l-174-132c-43 58-68 130-68 209z m86-235l175 133c22-20 51-35 82-39l0-219c-103 4-193 53-257 125z" horiz-adv-x="1000" />
<glyph glyph-name="glyph-187" unicode="&#xe8bb;" d="m-6 381l162 0 0-469 219 0 0 251 219 0 0-251 219 0 0 469 193 0-506 506z m787 32l0-469-156 0 0 250-281 0 0-250-156 0 0 469-120 0 432 431 432-431z" horiz-adv-x="1000" />
<glyph glyph-name="glyph-188" unicode="&#xe8bc;" d="m500-88c133 0 260 53 354 147 93 94 146 221 146 354 0 132-53 259-146 353-94 94-221 147-354 147-133 0-260-53-353-147-94-94-147-221-147-353 0-133 53-260 147-354 93-94 220-147 353-147z m-332 833c90 87 207 136 332 136 125 0 242-49 332-136 88-90 137-207 137-332 0-125-49-243-137-332-90-88-207-137-332-137-125 0-242 49-332 137-88 89-137 207-137 332 0 125 49 242 137 332z m316-223l32 0 0-344-32 0z m0 125l32 0 0-63-32 0z" horiz-adv-x="1000" />
<glyph glyph-name="glyph-189" unicode="&#xe8bd;" d="m234-88l532 0 0 1001-532 0z m32 32l0 390 468 0 0-390z m0 422l0 453 468 0 0-453z m468 515l0-31-468 0 0 31z m-242-578c-90 0-164-74-164-164 0-90 74-164 164-164 90 0 164 74 164 164 0 90-74 164-164 164z m0-297c-72 0-133 61-133 133 0 72 61 133 133 133 73 0 133-61 133-133 0-72-60-133-133-133z m0 188c-29 0-54-26-54-55 0-29 25-55 54-55 30 0 55 26 55 55 0 29-25 55-55 55z m0-78c-13 0-23 9-23 23 0 14 10 24 23 24 14 0 24-10 24-24 0-14-10-23-24-23z" horiz-adv-x="1000" />
<glyph glyph-name="glyph-190" unicode="&#xe8be;" d="m781 506l-265 0 0 63 218 0 0 140-156 0 0 32-31 0 0-63 156 0 0-78-219 0 0-94-265 0c-121 0-219-97-219-218 0-122 98-219 219-219 72 0 138 35 179 94l204 0c41-59 107-94 179-94 121 0 219 97 219 219 0 121-98 218-219 218z m0-406c-64 0-123 33-158 86l-4 8-238 0-4-8c-35-53-94-86-158-86-104 0-188 84-188 188 0 103 84 187 188 187l562 0c104 0 188-84 188-187 0-104-84-188-188-188z m-547 313l-31 0 0-110-109 0 0-31 109 0 0-109 31 0 0 109 110 0 0 31-110 0z m547 0c-68 0-125-57-125-125 0-69 57-125 125-125 69 0 125 56 125 125 0 68-56 125-125 125z m92-110l-76 0 0 76c39-6 70-37 76-76z m-107 76l0-76-76 0c5 39 37 70 76 76z m-76-107l76 0 0-76c-39 6-71 37-76 76z m107-76l0 76 76 0c-6-39-37-70-76-76z" horiz-adv-x="1000" />
<glyph glyph-name="glyph-191" unicode="&#xe8bf;" d="m797 616c-111 0-203-92-203-203 0-112 92-204 203-204 111 0 203 92 203 204 0 111-92 203-203 203z m0-375c-96 0-172 76-172 172 0 95 76 171 172 171 96 0 172-76 172-171 0-96-76-172-172-172z m-797 187l0-31 78 0 0-141 31 0 0 141 94 0 0-78 31 0 0 78 360 0 0 31z" horiz-adv-x="1000" />
<glyph glyph-name="glyph-192" unicode="&#xe8c0;" d="m125 678l219 0 0 141-156 0 0 31-32 0 0-62 157 0 0-79-219 0 0-125-94 0 0-500 1000 0 0 500-875 0z m844-562l-938 0 0 437 938 0z m-906 359l62 0 0-31-62 0z m93 0l63 0 0-31-63 0z m94 0l63 0 0-31-63 0z m94 0l62 0 0-31-62 0z m94 0l62 0 0-31-62 0z m93 0l63 0 0-31-63 0z m94 0l63 0 0-31-63 0z m94 0l62 0 0-31-62 0z m94 0l62 0 0-31-62 0z m-750-250l62 0 0-31-62 0z m93 0l63 0 0-31-63 0z m94 0l406 0 0-31-406 0z m531 0l63 0 0-31-63 0z m94 0l63 0 0-31-63 0z m-187 0l62 0 0-31-62 0z m-563 125l63 0 0-31-63 0z m94 0l62 0 0-31-62 0z m94 0l62 0 0-31-62 0z m93 0l63 0 0-31-63 0z m94 0l63 0 0-31-63 0z m94 0l62 0 0-31-62 0z m94 0l62 0 0-31-62 0z m93 0l63 0 0-31-63 0z m94 0l63 0 0-31-63 0z" horiz-adv-x="1000" />
<glyph glyph-name="glyph-193" unicode="&#xe8c1;" d="m891 741l-782 0 0-532-109 0 0-125 1000 0 0 125-109 0z m-750-32l718 0 0-500-718 0z m828-531l0-62-938 0 0 62z m-500 500l62 0 0-31-62 0z" horiz-adv-x="1000" />
<glyph glyph-name="glyph-194" unicode="&#xe8c2;" d="m500 913c-275 0-500-225-500-500 0-276 225-501 500-501 275 0 500 225 500 501 0 275-225 500-500 500z m455-391l-230 0c-26 51-65 90-116 115l0 231c170-41 305-176 346-346z m14-109c0-28-2-53-6-79l-225 0c8 26 12 51 12 79 0 27-4 52-12 78l225 0c4-26 6-51 6-78z m-469-219c-121 0-219 97-219 219 0 121 98 218 219 218 121 0 219-97 219-218 0-122-98-219-219-219z m-238 140l-225 0c-4 26-6 51-6 79 0 27 2 52 6 78l225 0c-8-26-12-51-12-78 0-28 4-53 12-79z m316 541l0-224c-25 8-51 12-78 12-27 0-53-4-78-12l0 224c25 4 51 6 78 6 27 0 53-2 78-6z m-187-7l0-231c-51-25-90-64-116-115l-230 0c41 170 176 305 346 346z m-346-565l230 0c26-51 65-90 116-115l0-231c-170 41-305 176-346 346z m377-353l0 224c25-8 51-11 78-11 27 0 53 3 78 11l0-224c-25-4-51-6-78-6-27 0-53 2-78 6z m187 7l0 231c51 25 90 64 116 115l230 0c-41-170-176-305-346-346z" horiz-adv-x="1000" />
<glyph glyph-name="glyph-195" unicode="&#xe8c3;" d="m625-88l0 94 31 0 0 94 32 0 0 94 0 86c97 64 156 172 156 289 0 189-154 344-344 344-189 0-344-155-344-344 0-117 61-227 157-289l0-180 31 0 0-94 31 0 0-94z m-31 32l-188 0 0 62 188 0z m-258 357c-92 57-148 158-148 268 0 172 140 312 312 312 172 0 313-140 313-312 0-110-55-209-149-266l-8-6 0-72-76 0 45 295-31 4-2-12-43-31-49 47-49-47-43 31-2 12-31-4 45-295-76 0 0 70z m115-76l-37 244 41-31 45 47 45-47 41 31-37-244z m-107-31l312 0 0-63-312 0z m31-94l250 0 0-62-250 0z" horiz-adv-x="1000" />
<glyph glyph-name="glyph-196" unicode="&#xe8c4;" d="m828 913c0 0 0 0 0 0-37 0-74-12-103-36l-205-203c-34-35-51-78-51-121 0-23 4-47 13-68 2-2 2-4 4-6l28 14c0 0-2 2-2 4l-14-6 14 6c-8 17-12 37-12 56 0 35 16 70 43 98l201 203c26 18 53 27 84 27 0 0 0 0 0 0 37 0 72-13 100-41 25-27 41-62 41-99 0-30-10-59-28-84l-187-186 0-2c-27-35-68-56-113-56 0 0 0 0 0 0-20 0-39 3-57 11l-12-29c22-10 45-14 69-14 0 0 0 0 0 0 54 0 103 26 136 69l188 185 0 2c23 31 35 67 35 104 0 47-18 90-51 121-33 33-76 51-121 51z m-340-584c8-18 12-38 12-57 0-31-10-59-27-84l-188-186 0-2c-27-37-68-56-113-56 0 0 0 0 0 0-37 0-72 13-100 41-25 27-41 62-41 99 0 36 16 71 43 98l201 203c26 18 53 28 84 28 0 0 0 0 0 0 20 0 39-4 57-12l12 29c-22 10-45 14-69 14 0 0 0 0 0 0-37 0-72-12-103-35l-205-205c-33-34-51-77-51-120 0-46 18-90 51-121 33-33 76-51 121-51 0 0 0 0 0 0 55 0 103 26 137 69l187 185 0 2c24 32 35 67 35 104 0 23-4 47-13 68z m164 212l-281-281-23 24 281 281z" horiz-adv-x="1000" />
<glyph glyph-name="glyph-197" unicode="&#xe8c5;" d="m766 647c0 146-119 266-266 266-146 0-266-120-266-266l0-234-125 0 0-501 782 0 0 501-125 0z m-500 0c0 129 105 234 234 234 129 0 234-105 234-234l0-234-468 0z m593-703l-718 0 0 437 718 0z m-375 158l0-49 32 0 0 49c35 8 62 39 62 76 0 43-35 78-78 78-43 0-78-35-78-78 0-37 27-68 62-76z m16 123c25 0 47-21 47-47 0-25-22-47-47-47-25 0-47 22-47 47 0 26 22 47 47 47z" horiz-adv-x="1000" />
<glyph glyph-name="glyph-198" unicode="&#xe8c6;" d="m266 647c0 129 105 234 234 234 129 0 234-105 234-234l0-47 32 0 0 47c0 146-119 266-266 266-146 0-266-120-266-266l0-234-125 0 0-501 782 0 0 501-625 0z m593-703l-718 0 0 437 718 0z m-375 158l0-49 32 0 0 49c35 8 62 39 62 76 0 43-35 78-78 78-43 0-78-35-78-78 0-37 27-68 62-76z m16 123c25 0 47-21 47-47 0-25-22-47-47-47-25 0-47 22-47 47 0 26 22 47 47 47z" horiz-adv-x="1000" />
<glyph glyph-name="glyph-199" unicode="&#xe8c7;" d="m500 913c-146 0-266-120-266-266l0-469c0-146 120-266 266-266 147 0 266 120 266 266l0 469c0 146-119 266-266 266z m234-735c0-129-105-234-234-234-129 0-234 105-234 234l0 469c0 129 105 234 234 234 129 0 234-105 234-234z m-250 578l32 0 0-125-32 0z" horiz-adv-x="1000" />
<glyph glyph-name="glyph-200" unicode="&#xe8c8;" d="m328 256c84 0 162 34 221 86l70-70-47-47 319-318 115 115-318 318-47-47-71 71c53 58 86 136 86 220 0 182-146 329-328 329-181 0-328-147-328-329 0-181 147-328 328-328z m635-234l-72-72-276 275 73 72z m-635 859c164 0 297-133 297-297 0-164-133-296-297-296-164 0-297 132-297 296 0 164 133 297 297 297z" horiz-adv-x="1000" />
<glyph glyph-name="glyph-201" unicode="&#xe8c9;" d="m188 600l281 0 0-31-281 0z m453-307l-71 71c53 58 86 136 86 220 0 182-146 329-328 329-181 0-328-147-328-329 0-181 147-328 328-328 84 0 162 34 221 86l70-70-47-47 319-318 115 115-318 318z m-610 291c0 164 133 297 297 297 164 0 297-133 297-297 0-164-133-296-297-296-164 0-297 132-297 296z m860-634l-276 275 73 72 275-275z" horiz-adv-x="1000" />
<glyph glyph-name="glyph-202" unicode="&#xe8ca;" d="m344 725l-31 0 0-125-125 0 0-31 125 0 0-125 31 0 0 125 125 0 0 31-125 0z m297-432l-71 71c53 58 86 136 86 220 0 182-146 329-328 329-181 0-328-147-328-329 0-181 147-328 328-328 84 0 162 34 221 86l70-70-47-47 319-318 115 115-318 318z m-610 291c0 164 133 297 297 297 164 0 297-133 297-297 0-164-133-296-297-296-164 0-297 132-297 296z m860-634l-276 275 73 72 275-275z" horiz-adv-x="1000" />
<glyph glyph-name="glyph-203" unicode="&#xe8cb;" d="m1000 725l-1000 0 0-609 1000 0z m-68-31l-432-278-432 278z m-901-547l0 533 469-303 469 303 0-533z" horiz-adv-x="1000" />
<glyph glyph-name="glyph-204" unicode="&#xe8cc;" d="m844 647l-844 0 0-531 844 0z m-74-31l-348-201-350 201z m-739-469l0 457 391-227 391 227 0-457z m110 516l31 0 0 93 797 0 0-468-110 0 0-32 141 0 0 532-859 0z" horiz-adv-x="1000" />
<glyph glyph-name="glyph-205" unicode="&#xe8cd;" d="m844 913l-688 0 0-331-156-66 0-604 1000 0 0 604-156 66z m-31-32l0-465-313-195-312 195 0 465z m-657-445l-107 68 107 45z m-125-492l0 535 469-295 469 295 0-535z m920 560l-107-68 0 113z" horiz-adv-x="1000" />
<glyph glyph-name="glyph-206" unicode="&#xe8ce;" d="m563 788l140 0 0-32-140 0z m-266-125l406 0 0-32-406 0z m0-125l406 0 0-32-406 0z m547 375l-688 0 0-331-156-66 0-604 1000 0 0 604-156 66z m-31-32l0-465-313-195-312 195 0 465z m-657-445l-107 68 107 45z m-125-492l0 535 469-295 469 295 0-535z m920 560l-107-68 0 113z" horiz-adv-x="1000" />
<glyph glyph-name="glyph-207" unicode="&#xe8cf;" d="m703 913l0-32 244 0-291-291c-70 65-164 104-265 104-215 0-391-176-391-391 0-215 176-391 391-391 215 0 390 176 390 391 0 102-39 195-103 266l291 291 0-244 31 0 0 281-16 16z m-312-969c-198 0-360 162-360 359 0 197 162 360 360 360 197 0 359-163 359-360 0-197-162-359-359-359z" horiz-adv-x="1000" />
<glyph glyph-name="glyph-208" unicode="&#xe8d0;" d="m344 852l-344-131 0-754 344 131 312-125 344 131 0 754-344-131z m15-41l282-111 0-686-282 111z m-328-113l297 113 0-684-297-113z m938-571l-297-113 0 684 297 113z" horiz-adv-x="1000" />
<glyph glyph-name="glyph-209" unicode="&#xe8d1;" d="m0 163l266 0 0-206 240 206 494 0 0 687-1000 0z m31 656l938 0 0-625-475 0-197-170 0 170-266 0z" horiz-adv-x="1000" />
<glyph glyph-name="glyph-210" unicode="&#xe8d2;" d="m203-50l209 181 463 0 0 625-875 0 0-625 203 0z m-172 213l0 562 813 0 0-562-444 0-166-145 0 145z m860 125l0-32 109 0 0 625-875 0 0-109 31 0 0 78 813 0 0-562z" horiz-adv-x="1000" />
<glyph glyph-name="glyph-211" unicode="&#xe8d3;" d="m156 678l688 0 0-31-688 0z m0-156l688 0 0-31-688 0z m0-156l688 0 0-32-688 0z m110-409l240 206 494 0 0 687-1000 0 0-687 266 0z m-235 237l0 625 938 0 0-625-475 0-197-170 0 170z" horiz-adv-x="1000" />
<glyph glyph-name="glyph-212" unicode="&#xe8d4;" d="m203 817l0 96-31 0 0-96c-53-8-94-53-94-108 0-54 41-99 94-107l0-690 31 0 0 690c53 8 94 53 94 107 0 55-41 100-94 108z m-15-186c-43 0-79 35-79 78 0 43 36 79 79 79 43 0 78-36 78-79 0-43-35-78-78-78z m640-408l0 690-31 0 0-690c-53-8-94-53-94-107 0-55 41-100 94-108l0-96 31 0 0 96c53 8 94 53 94 108 0 54-41 99-94 107z m-15-185c-43 0-79 35-79 78 0 43 36 78 79 78 43 0 78-35 78-78 0-43-35-78-78-78z m-297 482l0 393-32 0 0-393c-52-8-93-53-93-107 0-55 41-100 93-108l0-393 32 0 0 393c52 8 93 53 93 108 0 54-41 99-93 107z m-16-186c-43 0-78 36-78 79 0 43 35 78 78 78 43 0 78-35 78-78 0-43-35-79-78-79z" horiz-adv-x="1000" />
<glyph glyph-name="glyph-213" unicode="&#xe8d5;" d="m500 913c-146 0-266-120-266-266l0-469c0-146 120-266 266-266 147 0 266 120 266 266l0 469c0 146-119 266-266 266z m-16-32l0-281-218 0 0 47c0 123 97 225 218 234z m16-937c-129 0-234 105-234 234l0 391 468 0 0-391c0-129-105-234-234-234z m234 656l-218 0 0 281c121-9 218-111 218-234z" horiz-adv-x="1000" />
<glyph glyph-name="glyph-214" unicode="&#xe8d6;" d="m844-88l0 1001-688 0 0-110-47 0 0-31 47 0 0-94-47 0 0-31 47 0 0-94-47 0 0-31 47 0 0-94-47 0 0-31 47 0 0-94-47 0 0-31 47 0 0-94-47 0 0-31 47 0 0-94-47 0 0-31 47 0 0-110z m-31 32l-157 0 0 937 157 0z m-625 203l46 0 0 31-46 0 0 94 46 0 0 31-46 0 0 94 46 0 0 31-46 0 0 94 46 0 0 31-46 0 0 94 46 0 0 31-46 0 0 94 46 0 0 31-46 0 0 78 437 0 0-937-437 0 0 78 46 0 0 31-46 0z" horiz-adv-x="1000" />
<glyph glyph-name="glyph-215" unicode="&#xe8d7;" d="m844 819l-63 0 0-172 32 0 0 141 31 0 0-707 78-157 78 157 0 800-156 0z m31 31l94 0 0-762-47-94-47 94z m-828-906l656 0 0 937-656 0 0-78-47 0 0-31 47 0 0-94-47 0 0-31 47 0 0-94-47 0 0-31 47 0 0-94-47 0 0-31 47 0 0-94-47 0 0-31 47 0 0-94-47 0 0-31 47 0 0-94-47 0 0-31 47 0z m625 31l-125 0 0 875 125 0z m-594 172l47 0 0 31-47 0 0 94 47 0 0 31-47 0 0 94 47 0 0 31-47 0 0 94 47 0 0 31-47 0 0 94 47 0 0 31-47 0 0 94 47 0 0 31-47 0 0 47 438 0 0-875-438 0 0 47 47 0 0 31-47 0z" horiz-adv-x="1000" />
<glyph glyph-name="glyph-216" unicode="&#xe8d8;" d="m47-56l656 0 0 937-656 0 0-78-47 0 0-31 47 0 0-94-47 0 0-31 47 0 0-94-47 0 0-31 47 0 0-94-47 0 0-31 47 0 0-94-47 0 0-31 47 0 0-94-47 0 0-31 47 0 0-94-47 0 0-31 47 0z m625 31l-125 0 0 875 125 0z m-594 172l47 0 0 31-47 0 0 94 47 0 0 31-47 0 0 94 47 0 0 31-47 0 0 94 47 0 0 31-47 0 0 94 47 0 0 31-47 0 0 94 47 0 0 31-47 0 0 47 438 0 0-875-438 0 0 47 47 0 0 31-47 0z m766-82l78-156 78 156 0 848-156 0z m78-86l-47 94 0 652 94 0 0-652z m47 902l0-125-94 0 0 125z" horiz-adv-x="1000" />
<glyph glyph-name="glyph-217" unicode="&#xe8d9;" d="m10 457l-2-27 340-170 170-340 27 2 453 969-12 8-7 12z m900 387l-554-553-305 153z m-379-881l-152 305 553 555z" horiz-adv-x="1000" />
<glyph glyph-name="glyph-218" unicode="&#xe8da;" d="m0-88l1006 0-1006 1006z m31 141l94 0 0 31-94 0 0 94 63 0 0 31-63 0 0 94 94 0 0 31-94 0 0 94 63 0 0 31-63 0 0 94 94 0 0 31-94 0 0 260 901-900-901 0z m172 428l0-428 428 0z m31-74l323-323-323 0z m772-219l-39 154-576 576-116-115 577-576z m-43 43l-96 23-455 455 72 73 456-455z m-572 644l72-72-72-72-73 72z" horiz-adv-x="1000" />
<glyph glyph-name="glyph-219" unicode="&#xe8db;" d="m609-88l0 1001-281 0 0-1001z m-250 969l219 0 0-140-94 0 0-32 94 0 0-125-31 0 0-31 31 0 0-125-94 0 0-31 94 0 0-125-31 0 0-31 31 0 0-125-94 0 0-32 94 0 0-140-219 0z m-93-121l-78 156-79-156 0-848 157 0z m-78 86l46-94 0-652-93 0 0 652z m-47-902l0 125 93 0 0-125z m672-20l78 157 0 800-157 0 0-62-62 0 0-172 31 0 0 141 31 0 0-707z m-47 926l93 0 0-762-46-94-47 94z" horiz-adv-x="1000" />
<glyph glyph-name="glyph-220" unicode="&#xe8dc;" d="m602 772l-204 0-125-156-273 0 0-532 1000 0 0 532-273 0z m-571-188l94 0 0-468-94 0z m938-468l-813 0 0 468 133 0 125 157 172 0 125-157 258 0z m-469 375c-78 0-141-63-141-141 0-78 63-141 141-141 78 0 141 63 141 141 0 78-63 141-141 141z m0-250c-60 0-109 49-109 109 0 61 49 109 109 109 61 0 109-48 109-109 0-60-48-109-109-109z" horiz-adv-x="1000" />
<glyph glyph-name="glyph-221" unicode="&#xe8dd;" d="m0 69l1000 0 0 687-1000 0z m31 31l0 70 344 299 190-189 93 125 311-266 0-39z m938 625l0-545-315 272-93-125-186 185-344-299 0 512z m-172-250c51 0 94 43 94 94 0 51-43 94-94 94-51 0-94-43-94-94 0-51 43-94 94-94z m0 156c35 0 62-27 62-62 0-35-27-63-62-63-35 0-63 28-63 63 0 35 28 62 63 62z" horiz-adv-x="1000" />
<glyph glyph-name="glyph-222" unicode="&#xe8de;" d="m844 678l-844 0 0-656 844 0z m-31-31l0-545-202 174-154-94-223 254-203-205 0 416z m-782-594l0 135 203 201 215-246 158 94 206-176 0-8z m110 641l31 0 0 78 797 0 0-594-110 0 0-31 141 0 0 656-859 0z m484-328c51 0 94 43 94 93 0 51-43 94-94 94-51 0-94-43-94-94 0-50 43-93 94-93z m0 156c35 0 63-27 63-63 0-35-28-62-63-62-35 0-62 27-62 62 0 36 27 63 62 63z" horiz-adv-x="1000" />
<glyph glyph-name="glyph-223" unicode="&#xe8df;" d="m500 832c-94 0-170-76-170-169l31 0c0 76 63 138 139 138z m16-920l0 501c131 9 234 117 234 250 0 138-111 250-250 250-139 0-250-112-250-250 0-133 104-241 234-250l0-501z m-235 751c0 121 98 218 219 218 121 0 219-97 219-218 0-122-98-219-219-219-121 0-219 97-219 219z" horiz-adv-x="1000" />
<glyph glyph-name="glyph-224" unicode="&#xe8e0;" d="m236 456l-19-122 267 0 0-422 32 0 0 422 267 0-19 122-141 60-29 250 78 61 0 86-344 0 0-86 78-61-29-250z m202 322l-79 64 0 39 282 0 0-39-78-64 33-281 140-65 12-66-496 0 12 66 140 65z" horiz-adv-x="1000" />
<glyph glyph-name="glyph-225" unicode="&#xe8e1;" d="m1000 725l-1000 0 0-672 1000 0z m-31-641l-938 0 0 610 938 0z m-63 547l-156 0 0-187 156 0z m-31-156l-94 0 0 125 94 0z m-281 156l31 0 0-484-31 0z m-500-31l437 0 0-31-437 0z m0-94l375 0 0-31-375 0z m0-93l406 0 0-32-406 0z" horiz-adv-x="1000" />
<glyph glyph-name="glyph-226" unicode="&#xe8e2;" d="m859 616l-859 0 0-563 859 0z m-31-532l-797 0 0 500 797 0z m-656 641l797 0 0-500-78 0 0-31 109 0 0 562-859 0 0-109 31 0z m609-187l-140 0 0-157 140 0z m-31-125l-78 0 0 93 78 0z m-250 125l31 0 0-407-31 0z m-422-32l375 0 0-31-375 0z m0-78l328 0 0-31-328 0z m0-78l344 0 0-31-344 0z" horiz-adv-x="1000" />
<glyph glyph-name="glyph-227" unicode="&#xe8e3;" d="m766 913l-532 0 0-297-234 0 0-532 234 0 0-172 532 0 0 172 234 0 0 532-234 0z m-500-32l468 0 0-265-468 0z m468-937l-468 0 0 344 468 0z m235 640l0-468-203 0 0 203-532 0 0-203-203 0 0 468z m-875-78l62 0 0-31-62 0z m94 0l62 0 0-31-62 0z m156-312l312 0 0-31-312 0z m0-125l312 0 0-31-312 0z" horiz-adv-x="1000" />
<glyph glyph-name="glyph-228" unicode="&#xe8e4;" d="m500 913c-133 0-260-53-353-147-94-94-147-221-147-353 0-133 53-260 147-354 93-94 220-147 353-147 133 0 260 53 354 147 93 94 146 221 146 354 0 132-53 259-146 353-94 94-221 147-354 147z m332-832c-90-88-207-137-332-137-125 0-242 49-332 137-88 89-137 207-137 332 0 125 49 242 137 332 90 87 207 136 332 136 125 0 242-49 332-136 88-90 137-207 137-332 0-125-49-243-137-332z m-379 160l31 0 0-63-31 0z m47 437c-94 0-141-31-141-94l32 0c0 30 11 63 109 63 66 0 109-37 109-94 0-43-60-84-86-96-1-1-70-37-70-138l0-16 31 0 0 16c0 82 51 109 55 111 4 2 102 51 102 123 0 74-59 125-141 125z" horiz-adv-x="1000" />
<glyph glyph-name="glyph-229" unicode="&#xe8e5;" d="m125 913l0-32c250 0 486-111 648-302 127-153 196-344 196-541l31 0c0 205-72 404-203 560-166 199-406 315-672 315z m668-875l31 0c0 384-308 699-699 699l0-31c375 0 668-301 668-668z m-668 521l0-31c266 0 492-219 492-490l31 0c0 287-242 521-523 521z m348-521c0 191-160 345-348 345l0-31c172 0 316-141 316-314z m-221 0c0 70-57 125-127 125-68 0-125-55-125-125 0-71 57-126 125-126 70 0 127 55 127 126z m-221 0c0 52 43 93 94 93 53 0 96-41 96-93 0-53-43-94-96-94-51 0-94 41-94 94z" horiz-adv-x="1000" />
<glyph glyph-name="glyph-230" unicode="&#xe8e6;" d="m842 913l-684 0-93-625-2 0 0-376 875 0 0 376-2 0z m-656-32l629 0 89-593-808 0z m720-937l-812 0 0 312 812 0z m-156 94c35 0 63 27 63 62 0 35-28 63-63 63-35 0-62-28-62-63 0-35 27-62 62-62z m0 93c18 0 31-13 31-31 0-18-13-31-31-31-18 0-31 13-31 31 0 18 13 31 31 31z" horiz-adv-x="1000" />
<glyph glyph-name="glyph-231" unicode="&#xe8e7;" d="m516 913c-209 0-422-43-422-125l0-750c0-83 213-126 422-126 209 0 422 43 422 126l0 750c0 82-213 125-422 125z m0-969c-243 0-391 54-391 94l0 199c66-49 229-74 391-74 162 0 324 25 390 74l0-199c0-40-148-94-390-94z m0 250c-243 0-391 54-391 94l0 199c66-49 229-74 391-74 162 0 324 25 390 74l0-199c0-40-148-94-390-94z m0 250c-243 0-391 54-391 94l0 199c66-49 229-74 391-74 162 0 324 25 390 74l0-199c0-40-148-94-390-94z m0 250c-243 0-391 54-391 94 0 39 148 93 391 93 242 0 390-54 390-93 0-40-148-94-390-94z" horiz-adv-x="1000" />
<glyph glyph-name="glyph-232" unicode="&#xe8e8;" d="m842 913l-684 0-93-625-2 0 0-376 875 0 0 376-2 0z m-656-32l629 0 89-593-808 0z m720-937l-812 0 0 312 812 0z m-156 94c35 0 63 27 63 62 0 35-28 63-63 63-35 0-62-28-62-63 0-35 27-62 62-62z m0 93c18 0 31-13 31-31 0-18-13-31-31-31-18 0-31 13-31 31 0 18 13 31 31 31z m-125 467c-8 55-59 96-125 96-59 0-107-47-121-96-33-6-51-41-51-60 0-40 24-63 63-63l218 0c39 0 63 23 63 63 0 19-16 52-47 60z m-16-92l-218 0c-24 0-32 8-32 32 0 7 10 31 32 31l13 0 2 12c8 39 49 82 94 82 45 0 94-28 94-79l0-15 15 0c22 0 32-24 32-31 0-22-10-32-32-32z" horiz-adv-x="1000" />
<glyph glyph-name="glyph-233" unicode="&#xe8e9;" d="m842 913l-684 0-93-625-2 0 0-376 875 0 0 376-2 0z m-656-32l629 0 89-593-808 0z m720-937l-812 0 0 312 812 0z m-156 94c35 0 63 27 63 62 0 35-28 63-63 63-35 0-62-28-62-63 0-35 27-62 62-62z m0 93c18 0 31-13 31-31 0-18-13-31-31-31-18 0-31 13-31 31 0 18 13 31 31 31z m-234 334l0 276-32 0 0-276-97 100-24-25 125-127 24 0 125 127-24 23z" horiz-adv-x="1000" />
<glyph glyph-name="glyph-234" unicode="&#xe8ea;" d="m842 913l-684 0-93-625-2 0 0-376 875 0 0 376-2 0z m-656-32l629 0 89-593-808 0z m720-937l-812 0 0 312 812 0z m-156 94c35 0 63 27 63 62 0 35-28 63-63 63-35 0-62-28-62-63 0-35 27-62 62-62z m0 93c18 0 31-13 31-31 0-18-13-31-31-31-18 0-31 13-31 31 0 18 13 31 31 31z m-262 610l-125-127 24-24 97 98 0-275 32 0 0 275 97-100 24 26-125 127z" horiz-adv-x="1000" />
<glyph glyph-name="glyph-235" unicode="&#xe8eb;" d="m641 325l-65 66 117 115 57 0c78 0 172 37 172 211l0 26-137-65-49 49 61 139-24 0c-173 0-210-94-210-172l0-57-118-117-189 189 51 51-184 110-49-49 110-184 50 51 190-191-381-385-2-4-31-106 47-45 107 28 389 383 66-65-47-47 319-318 115 115-318 319z m-528 492l14 14 129-79-65-64z m34-805l-82-19-20 17 23 82 526 533 0 69c0 88 51 133 156 138l-49-113 76-80 114 53c-8-102-55-154-141-154l-68 0z m744-31l-276 275 73 73 275-276z" horiz-adv-x="1000" />
<glyph glyph-name="glyph-236" unicode="&#xe8ec;" d="m797 913c-111 0-203-92-203-204 0-43 13-82 35-113l-338-217c-31 32-72 49-119 49-96 0-172-76-172-172 0-95 76-172 172-172 64 0 121 36 150 88l287-113c0-2 0-4 0-6 0-78 63-141 141-141 78 0 141 63 141 141 0 78-63 141-141 141-64 0-119-45-135-104l-281 112c6 17 10 35 10 54 0 37-12 73-33 100l337 215c38-39 90-65 149-65 111 0 203 92 203 203 0 112-92 204-203 204z m-47-750c61 0 109-49 109-110 0-60-48-109-109-109-60 0-109 49-109 109 0 61 49 110 109 110z m-578-47c-78 0-141 62-141 140 0 78 63 141 141 141 78 0 141-63 141-141 0-78-63-140-141-140z m625 422c-96 0-172 76-172 171 0 96 76 172 172 172 96 0 172-76 172-172 0-95-76-171-172-171z" horiz-adv-x="1000" />
<glyph glyph-name="glyph-237" unicode="&#xe8ed;" d="m125 684l0-772 750 0 0 1001-521 0z m219 176l0-166-166 0z m500-916l-688 0 0 719 219 0 0 218 469 0z" horiz-adv-x="1000" />
<glyph glyph-name="glyph-238" unicode="&#xe8ee;" d="m109 590l0-678 641 0 0 876-443 0z m188 145l0-135-135 0z m422-791l-578 0 0 625 187 0 0 187 391 0z m47 125l0-31 125 0 0 875-444 0-84-82 24-24 72 74 400 0 0-812z" horiz-adv-x="1000" />
<glyph glyph-name="glyph-239" unicode="&#xe8ef;" d="m1000 881l-156 0 0-62-63 0 0-172 32 0 0 141 31 0 0-707 78-157 78 157z m-31-793l-47-94-47 94 0 762 94 0z m-297 596l-197 197-475 0 0-937 672 0z m-188 145l135-135-135 0z m-453-854l0 875 422 0 0-187 188 0 0-688z m94 750l188 0 0-31-188 0z m0-156l422 0 0-31-422 0z m0-125l422 0 0-31-422 0z m0-125l422 0 0-31-422 0z m0-125l422 0 0-31-422 0z" horiz-adv-x="1000" />
<glyph glyph-name="glyph-240" unicode="&#xe8f0;" d="m672 684l-197 197-475 0 0-937 672 0z m-188 145l135-135-135 0z m-453-854l0 875 422 0 0-187 188 0 0-688z m969 938l-156 0 0-848 78-156 78 156z m-31-32l0-125-94 0 0 125z m-47-902l-47 94 0 652 94 0 0-652z m-797 746l188 0 0-31-188 0z m0-156l422 0 0-31-422 0z m0-125l422 0 0-31-422 0z m0-125l422 0 0-31-422 0z m0-125l422 0 0-31-422 0z" horiz-adv-x="1000" />
<glyph glyph-name="glyph-241" unicode="&#xe8f1;" d="m125-88l750 0 0 1001-521 0-229-229z m719 32l-688 0 0 719 219 0 0 218 469 0z m-666 750l166 166 0-166z m322 15l219 0 0-31-219 0z m-219-156l438 0 0-31-438 0z m0-156l438 0 0-31-438 0z m0-156l438 0 0-32-438 0z m0-157l438 0 0-31-438 0z" horiz-adv-x="1000" />
<glyph glyph-name="glyph-242" unicode="&#xe8f2;" d="m484 272l0-328-109 0 0-32 250 0 0 32-109 0 0 328 156 0 0 219-156 0 0 31 349 0 127 109-127 110-349 0 0 62-32 0 0-62-156 0 0-219 156 0 0-31-349 0-127-110 127-109z m-125 437l495 0 91-78-91-78-495 0z m-212-250l494 0 0-156-494 0-92 78z" horiz-adv-x="1000" />
<glyph glyph-name="glyph-243" unicode="&#xe8f3;" d="m234-88l532 0 0 1001-532 0z m32 32l0 156 468 0 0-156z m0 187l0 625 468 0 0-625z m468 750l0-93-468 0 0 93z m-296-31l125 0 0-31-125 0z m62-781c-25 0-47-22-47-47 0-26 22-47 47-47 25 0 47 21 47 47 0 25-22 47-47 47z m0-63c-8 0-16 8-16 16 0 8 8 16 16 16 8 0 16-8 16-16 0-8-8-16-16-16z" horiz-adv-x="1000" />
<glyph glyph-name="glyph-244" unicode="&#xe8f4;" d="m31 350c0-133 117-250 250-250 75 0 137 39 172 106-4-84-23-262-94-262l0-32 282 0 0 32c-71 0-90 174-94 260 39-63 107-104 187-104 145 0 235 129 235 250 0 125-78 258-233 395-113 99-226 166-228 166l-8 4-8-4c-2 0-115-67-228-166-155-137-233-270-233-395z m469 529c59-35 438-273 438-529 0-105-79-219-204-219-107 0-187 80-187 188l-31 0 0-94c0-25 2-207 64-281l-160 0c62 74 64 256 64 281l0 94-31 2c-8-94-64-190-172-190-117 0-218 102-218 219 0 256 378 494 437 529z" horiz-adv-x="1000" />
<glyph glyph-name="glyph-245" unicode="&#xe8f5;" d="m0 836l0-781 500-64 500 64 0 781-500-64z m31-35l453-58 0-719-453 58z m938-719l-453-58 0 719 453 58z" horiz-adv-x="1000" />
<glyph glyph-name="glyph-246" unicode="&#xe8f6;" d="m1000 55l0 781-500-64-500 64 0-781 500-64z m-31 27l-453-58 0 719 140 17 0-295 78 39 79-39 0 317 156 19z m-281 682l93 14 0-262-47 24-46-24z m-657 37l453-58 0-719-453 58z" horiz-adv-x="1000" />
<glyph glyph-name="glyph-247" unicode="&#xe8f7;" d="m0 836l0-781 500-64 500 64 0 781-500-64z m31-35l453-58 0-719-453 58z m938-719l-453-58 0 719 453 58z m-858 596l297-31-4-31-297 31z m293-219l-297 32 4 31 297-31z m0-156l-297 31 4 32 297-32z m0-156l-297 31 4 31 297-31z m485 531l4-31-297-31-4 31z m0-156l4-31-297-32-4 32z m0-156l4-32-297-31-4 31z m-293-219l-4 31 297 31 4-31z" horiz-adv-x="1000" />
<glyph glyph-name="glyph-248" unicode="&#xe8f8;" d="m0 836l0-781 500-64 500 64 0 781-500-64z m31-35l453-58 0-719-453 58z m938-719l-453-58 0 719 140 17 0-295 78 39 79-39 0 317 156 19z m-281 682l93 14 0-262-47 24-46-24z m-577-86l297-31-4-31-297 31z m293-219l-297 32 4 31 297-31z m0-156l-297 31 4 32 297-32z m0-156l-297 31 4 31 297-31z m192 156l-4 31 297 32 4-32z m0-156l-4 31 297 31 4-31z" horiz-adv-x="1000" />
<glyph glyph-name="glyph-249" unicode="&#xe8f9;" d="m500 944l-137-391-377 0 309-240-139-412 344 258 344-258-139 412 309 240-377 0z m170-619l111-338-281 211-281-211 111 338-254 197 311 0 113 328 113-328 311 0z" horiz-adv-x="1000" />
<glyph glyph-name="glyph-250" unicode="&#xe8fa;" d="m844 913l-688 0 0-1001 688 0z m-31-32l0-93-625 0 0 93z m0-125l0-625-625 0 0 625z m-625-812l0 156 625 0 0-156z m250 906l125 0 0-31-125 0z m62-781c-25 0-47-22-47-47 0-26 22-47 47-47 25 0 47 21 47 47 0 25-22 47-47 47z m0-63c-8 0-16 8-16 16 0 8 8 16 16 16 8 0 16-8 16-16 0-8-8-16-16-16z" horiz-adv-x="1000" />
<glyph glyph-name="glyph-251" unicode="&#xe8fb;" d="m500 913c-133 0-260-53-353-147-94-94-147-221-147-353 0-133 53-260 147-354 93-94 220-147 353-147 133 0 260 53 354 147 93 94 146 221 146 354 0 132-53 259-146 353-94 94-221 147-354 147z m332-832c-90-88-207-137-332-137-125 0-242 49-332 137-88 89-137 207-137 332 0 125 49 242 137 332 90 87 207 136 332 136 125 0 242-49 332-136 88-90 137-207 137-332 0-125-49-243-137-332z m-332 707c-100 0-195-40-266-110-70-70-109-166-109-265 0-100 39-196 109-266 71-70 166-109 266-109 100 0 195 39 266 109 70 70 109 166 109 266 0 99-39 195-109 265-71 70-166 110-266 110z m242-618c-64-66-150-101-242-101-92 0-178 35-242 101-67 65-102 151-102 243 0 91 35 177 102 242 64 66 150 101 242 101 92 0 178-35 242-101 67-65 102-151 102-242 0-92-35-178-102-243z m-242 493c-66 0-129-26-178-73-47-49-72-111-72-177 0-67 25-129 72-178 49-47 112-72 178-72 66 0 129 25 178 72 47 49 72 111 72 178 0 66-25 128-72 177-49 47-112 73-178 73z m154-405c-41-41-95-64-154-64-59 0-113 23-154 64-41 41-65 96-65 155 0 58 24 113 65 154 41 41 95 64 154 64 59 0 113-23 154-64 41-41 65-96 65-154 0-59-24-114-65-155z m-154 280c-33 0-64-14-88-38-23-23-37-54-37-87 0-34 14-65 37-88 24-24 55-37 88-37 33 0 65 13 88 37 23 23 37 54 37 88 0 33-14 64-37 87-23 24-55 38-88 38z m66-192c-17-17-41-27-66-27-25 0-49 10-66 27-18 18-28 41-28 67 0 25 10 48 28 66 17 18 41 27 66 27 25 0 49-9 66-27 18-18 28-41 28-66 0-26-10-49-28-67z" horiz-adv-x="1000" />
<glyph glyph-name="glyph-252" unicode="&#xe8fc;" d="m859 803l-211 0-11 47-59 0 0 63-156 0 0-63-59 0-11-47-211 0 0-891 718 0z m-472 16l66 0 0 62 94 0 0-62 66 0 24-94-274 0z m441-875l-656 0 0 828 172 0-20-78 352 0-20 78 172 0z" horiz-adv-x="1000" />
<glyph glyph-name="glyph-253" unicode="&#xe8fd;" d="m922-76l78 157 0 800-156 0 0-62-63 0 0-172 32 0 0 141 31 0 0-707z m-47 926l94 0 0-762-47-94-47 94z m-156-47l-211 0-12 47-58 0 0 63-157 0 0-63-58 0-12-47-211 0 0-891 719 0z m-473 16l67 0 0 62 93 0 0-62 67 0 23-94-273 0z m442-875l-657 0 0 828 172 0-19-78 351 0-19 78 172 0z" horiz-adv-x="1000" />
<glyph glyph-name="glyph-254" unicode="&#xe8fe;" d="m844 65l78-156 78 156 0 848-156 0z m78-86l-47 94 0 652 94 0 0-652z m47 902l0-125-94 0 0 125z m-250-78l-211 0-12 47-58 0 0 63-157 0 0-63-58 0-12-47-211 0 0-891 719 0z m-473 16l67 0 0 62 93 0 0-62 67 0 23-94-273 0z m442-875l-657 0 0 828 172 0-19-78 351 0-19 78 172 0z" horiz-adv-x="1000" />
<glyph glyph-name="glyph-255" unicode="&#xe8ff;" d="m391 553l343 0 0-31-343 0z m0-156l343 0 0-31-343 0z m0-156l343 0 0-32-343 0z m0-157l343 0 0-31-343 0z m-125 469l62 0 0-31-62 0z m0-156l62 0 0-31-62 0z m0-156l62 0 0-32-62 0z m0-157l62 0 0-31-62 0z m156 829l0-63-59 0-11-47-211 0 0-891 718 0 0 891-211 0-11 47-59 0 0 63z m254-219l-20 78 172 0 0-828-656 0 0 828 172 0-20-78z m-63 125l24-94-274 0 24 94 66 0 0 62 94 0 0-62z" horiz-adv-x="1000" />
<glyph glyph-name="glyph-256" unicode="&#xe900;" d="m250 553l344 0 0-31-344 0z m0-156l344 0 0-31-344 0z m0-156l344 0 0-32-344 0z m0-157l344 0 0-31-344 0z m-125 469l63 0 0-31-63 0z m0-156l63 0 0-31-63 0z m0-156l63 0 0-32-63 0z m0-157l63 0 0-31-63 0z m594 719l-211 0-12 47-58 0 0 63-157 0 0-63-58 0-12-47-211 0 0-891 719 0z m-473 16l67 0 0 62 93 0 0-62 67 0 23-94-273 0z m442-875l-657 0 0 828 172 0-19-78 351 0-19 78 172 0z m312 937l-156 0 0-62-63 0 0-172 32 0 0 141 31 0 0-707 78-157 78 157z m-31-793l-47-94-47 94 0 762 94 0z" horiz-adv-x="1000" />
<glyph glyph-name="glyph-257" unicode="&#xe901;" d="m250 553l344 0 0-31-344 0z m0-156l344 0 0-31-344 0z m0-156l344 0 0-32-344 0z m0-157l344 0 0-31-344 0z m-125 469l63 0 0-31-63 0z m0-156l63 0 0-31-63 0z m0-156l63 0 0-32-63 0z m0-157l63 0 0-31-63 0z m594 719l-211 0-12 47-58 0 0 63-157 0 0-63-58 0-12-47-211 0 0-891 719 0z m-473 16l67 0 0 62 93 0 0-62 67 0 23-94-273 0z m442-875l-657 0 0 828 172 0-19-78 351 0-19 78 172 0z m312 121l0 848-156 0 0-848 78-156z m-31 816l0-125-94 0 0 125z m-94-156l94 0 0-652-47-94-47 94z" horiz-adv-x="1000" />
<glyph glyph-name="glyph-258" unicode="&#xe902;" d="m203-88l594 0 0 844 47 0 0 32-219 0 0 125-250 0 0-125-219 0 0-32 47 0z m203 969l188 0 0-93-188 0z m360-125l0-812-532 0 0 812z m-375-156l31 0 0-531-31 0z m187 0l31 0 0-531-31 0z" horiz-adv-x="1000" />
<glyph glyph-name="glyph-259" unicode="&#xe903;" d="m734 565l188-641 31 8-56 190 91 31-72 248-92-31-60 205-30-8 0 158-37 0-78 188-205 0-64-81-143 2-31-109-35 0 0-813 593 0z m163-203l52-190-60-19-57 187z m-467 519l170 0 64-156-262 0-27 88z m-199-78l115-2 23-76-160 0z m472-859l-531 0 0 750 531 0z m-375 625l31 0 0-531-31 0z m188 0l31 0 0-531-31 0z" horiz-adv-x="1000" />
<glyph glyph-name="glyph-260" unicode="&#xe904;" d="m203-88l594 0 0 844 47 0 0 32-219 0 0 125-250 0 0-125-219 0 0-32 47 0z m203 969l188 0 0-93-188 0z m360-125l0-812-532 0 0 812z m-282-562l32 0-28-37 26-20 49 63 0 19-49 63-26-20 28-37-32 0c-62 0-109 66-109 125l-31 0c0-74 60-156 140-156z m28 244l-28 37 32 0c62 0 109-66 109-125l31 0c0 74-60 156-140 156l-32 0 28 37-26 20-48-63 0-19 48-63z" horiz-adv-x="1000" />
<glyph glyph-name="glyph-261" unicode="&#xe905;" d="m203-88l594 0 0 844 47 0 0 32-219 0 0 125-250 0 0-125-219 0 0-32 47 0z m203 969l188 0 0-93-188 0z m360-125l0-812-532 0 0 812z m-364-527l98 100 98-100 23 23-99 98 99 98-23 23-98-99-98 99-23-23 100-98-100-98z" horiz-adv-x="1000" />
<glyph glyph-name="glyph-262" unicode="&#xe906;" d="m516 6l0 463 97-99 24 25-125 127-24 0-125-127 24-23 97 97 0-463z m-141 266l-344 0 0 531 938 0 0-531-344 0 0-31 375 0 0 593-1000 0 0-593 375 0z" horiz-adv-x="1000" />
<glyph glyph-name="glyph-263" unicode="&#xe907;" d="m438 700l-219 218-225-224 219-219-63-62 506-506 350 349-506 506z m-401-6l182 181 197-197-182-181z m619-744l-463 463 307 306 463-463z m-418 607l-140 141 23 23 141-140z m-47 234l24 24 141-141-24-23z" horiz-adv-x="1000" />
<glyph glyph-name="glyph-264" unicode="&#xe908;" d="m734 616l-103 0-125 125-412 0 0-32 400 0 94-93-588 0 0-532 734 0 0 145 266-156 0 554-266-156z m235-43l0-446-266 157 0-168-672 0 0 468 672 0 0-168z m-875-82l62 0 0-32-62 0z m125 0l62 0 0-32-62 0z m-125-313l312 0 0 188-312 0z m31 156l250 0 0-125-250 0z" horiz-adv-x="1000" />
<glyph glyph-name="glyph-265" unicode="&#xe909;" d="m828 413c0 109-55 205-137 265l12 0 0 235-406 0 0-235 12 0c-82-60-137-156-137-265 0-110 55-206 137-266l-12 0 0-235 406 0 0 235-12 0c82 60 137 156 137 266z m-500 468l344 0 0-189c-51 31-109 49-172 49-62 0-121-18-172-49z m344-937l-344 0 0 189c51-31 110-49 172-49 63 0 121 18 172 49z m-172 172c-164 0-297 132-297 297 0 164 133 296 297 296 164 0 297-132 297-296 0-165-133-297-297-297z m16 484l-32 0 0-197 133-67 16 28-117 58z" horiz-adv-x="1000" />
<glyph glyph-name="glyph-266" unicode="&#xe90a;" d="m0 6l1000 0 0 813-1000 0z m31 32l0 625 938 0 0-625z m938 750l0-94-938 0 0 94z m-875-32l62 0 0-31-62 0z m125 0l62 0 0-31-62 0z m125 0l62 0 0-31-62 0z" horiz-adv-x="1000" />
<glyph glyph-name="glyph-267" unicode="&#xe90b;" d="m0 6l1000 0 0 813-1000 0z m31 32l0 625 938 0 0-625z m938 750l0-94-938 0 0 94z m-875-32l62 0 0-31-62 0z m125 0l62 0 0-31-62 0z m125 0l62 0 0-31-62 0z m-250-218l422 0 0-32-422 0z m0-125l422 0 0-32-422 0z m0-125l422 0 0-32-422 0z m484-32l328 0 0 282-328 0z m31 250l266 0 0-218-266 0z" horiz-adv-x="1000" />
<glyph glyph-name="glyph-268" unicode="&#xe90c;" d="m875 694l-875 0 0-688 875 0z m-31-31l0-94-813 0 0 94z m-813-625l0 500 813 0 0-500z m125 687l32 0 0 63 781 0 0-641-63 0 0-31 94 0 0 703-844 0z m-62-94l62 0 0-31-62 0z m125 0l62 0 0-31-62 0z m125 0l62 0 0-31-62 0z" horiz-adv-x="1000" />
<glyph glyph-name="glyph-269" unicode="&#xe90d;" d="m94 538l812 0 0-32-812 0z m0-125l812 0 0-32-812 0z m0-125l812 0 0-32-812 0z m906 531l-1000 0 0-813 1000 0z m-31-31l0-94-938 0 0 94z m-938-750l0 625 938 0 0-625z m63 718l62 0 0-31-62 0z m125 0l62 0 0-31-62 0z m125 0l62 0 0-31-62 0z" horiz-adv-x="1000" />
<glyph glyph-name="glyph-270" unicode="&#xe90e;" d="m500 915c-135 0-260-53-355-147-94-96-147-221-147-355 0-135 53-260 147-354 95-96 220-147 355-147 0 0 0 0 0 0l0 0c277 0 502 225 502 501 0 134-53 259-146 355-96 94-221 147-356 147z m356-194c-14-19-51-60-125-94-43 123-112 207-155 250 98-15 186-60 256-132 8-8 16-16 24-24z m-333-779c-1 0-5 0-7 0l0 299c78-2 138-14 185-32-54-158-158-252-178-267z m-224 267c49 18 109 30 185 32l0-299c-2 0-5 0-7 0-20 15-123 109-178 267z m178 674c2 0 5 0 7 0l0-299c-78 2-138 14-185 32 55 158 158 252 178 267z m224-267c-49-18-109-30-185-32l0 299c2 0 6 0 7 0 20-15 124-109 178-267z m-185-63c80 2 144 14 195 31 14-46 21-99 23-156l-218 0z m-32 0l0-125-218 0c2 57 9 110 23 156 51-17 115-29 195-31z m-250-125l-205 0c4 98 37 192 96 268 20-24 61-67 135-100-14-51-24-105-26-168z m0-31c2-63 12-117 26-168-74-33-115-76-135-100-59 77-92 170-96 268z m32 0l218 0 0-125c-80-2-144-14-195-31-14 47-21 99-23 156z m250-125l0 125 218 0c-2-57-9-109-23-156-51 17-115 29-195 31z m250 125l205 0c-4-100-39-193-96-268-19 26-60 67-135 100 14 51 24 105 26 168z m0 31c-2 63-12 117-26 168 75 33 116 76 135 100 59-76 92-170 96-268l-205 0z m-342 449c-43-43-111-127-154-250-24 10-43 22-57 32-37 25-59 48-66 62 5 8 13 16 21 24 70 72 158 117 256 132z m-279-773c13 19 50 61 125 94 43-123 111-207 154-250-98 15-186 60-256 133-8 7-16 15-23 23z m355-176l0-2z m76 20c43 43 112 127 155 250 23-10 42-22 56-32 37-25 59-48 67-62-71-82-168-137-278-156z" horiz-adv-x="1000" />
<glyph glyph-name="glyph-271" unicode="&#xe90f;" d="m500 141l234-234 0 1006-468 0 0-1006z m-203 740l406 0 0-900-203 203-203-203z m363-207l-191-193-98 100-23-26 109-111 24 0 203 205z" horiz-adv-x="1000" />
<glyph glyph-name="glyph-272" unicode="&#xe910;" d="m359 584l282 0 0-31-282 0z m141-443l234-234 0 1006-468 0 0-1006z m-203 740l406 0 0-900-203 203-203-203z" horiz-adv-x="1000" />
<glyph glyph-name="glyph-273" unicode="&#xe911;" d="m516 428l0 125 125 0 0 31-125 0 0 125-32 0 0-125-125 0 0-31 125 0 0-125z m-16-287l234-234 0 1006-468 0 0-1006z m-203 740l406 0 0-900-203 203-203-203z" horiz-adv-x="1000" />
<glyph glyph-name="glyph-274" unicode="&#xe912;" d="m500 141l234-234 0 1006-468 0 0-1006z m-203 740l406 0 0-900-203 203-203-203z m301-433l23 23-99 98 99 97-23 24-98-100-98 100-23-24 100-97-100-98 23-23 98 99z" horiz-adv-x="1000" />
<glyph glyph-name="glyph-275" unicode="&#xe913;" d="m938 288l-2 0-94 625-684 0-93-625-2 0 0-376 875 0z m-752 593l629 0 89-593-248 0 0-16c0-86-70-156-156-156-86 0-156 70-156 156l0 16-248 0z m720-937l-812 0 0 312 219 0c7-95 89-172 187-172 98 0 180 77 188 172l218 0z m-425 500l203 205-24 23-191-191-98 100-23-26 109-111z" horiz-adv-x="1000" />
<glyph glyph-name="glyph-276" unicode="&#xe914;" d="m938 288l-2 0-94 625-684 0-93-625-2 0 0-376 875 0z m-752 593l629 0 89-593-248 0 0-16c0-86-70-156-156-156-86 0-156 70-156 156l0 16-248 0z m720-937l-812 0 0 312 219 0c7-95 89-172 187-172 98 0 180 77 188 172l218 0z m-394 437l125 127-24 24-97-98 0 275-32 0 0-275-97 100-24-26 125-127z" horiz-adv-x="1000" />
</font>
</defs>
</svg>
